<svg width="221" height="256" viewBox="0 0 221 256" fill="none" xmlns="http://www.w3.org/2000/svg">
<g clip-path="url(#clip0_1_13528)">
<g opacity="0.2">
<path d="M34.5 373C-68.3737 373 -152 289.374 -152 186.5C-152 83.6263 -68.3737 0 34.5 0C137.374 0 221 83.6263 221 186.5C221 289.374 137.374 373 34.5 373ZM34.5 2.38932C-67.0463 2.38932 -149.611 84.9537 -149.611 186.5C-149.611 288.046 -67.0463 370.611 34.5 370.611C136.046 370.611 218.611 288.046 218.611 186.5C218.611 84.9537 136.046 2.38932 34.5 2.38932Z" fill="#DAEAF4"/>
<path d="M34.5005 350.567C-55.8956 350.567 -129.566 277.029 -129.566 186.5C-129.566 96.1044 -56.0283 22.4336 34.5005 22.4336C125.029 22.4336 198.567 95.9717 198.567 186.5C198.567 277.029 124.897 350.567 34.5005 350.567ZM34.5005 24.8229C-54.5682 24.8229 -127.177 97.2991 -127.177 186.5C-127.177 275.569 -54.7009 348.178 34.5005 348.178C123.702 348.178 196.178 275.702 196.178 186.5C196.178 97.4318 123.569 24.8229 34.5005 24.8229Z" fill="#DAEAF4"/>
<path d="M34.5011 328.135C-43.5502 328.135 -107 264.552 -107 186.501C-107 108.45 -43.5502 45 34.5011 45C112.552 45 176.002 108.45 176.002 186.501C176.002 264.552 112.552 328.135 34.5011 328.135ZM34.5011 47.3893C-42.2228 47.3893 -104.611 109.777 -104.611 186.501C-104.611 263.225 -42.2228 325.613 34.5011 325.613C111.225 325.613 173.613 263.225 173.613 186.501C173.613 109.777 111.225 47.3893 34.5011 47.3893Z" fill="#DAEAF4"/>
<path d="M34.4996 305.568C-31.2068 305.568 -84.5684 252.206 -84.5684 186.5C-84.5684 120.793 -31.2068 67.4316 34.4996 67.4316C100.206 67.4316 153.568 120.793 153.568 186.5C153.568 252.206 100.206 305.568 34.4996 305.568ZM34.4996 69.821C-29.8794 69.821 -82.179 122.121 -82.179 186.5C-82.179 250.879 -29.8794 303.178 34.4996 303.178C98.8786 303.178 151.178 250.879 151.178 186.5C151.178 122.121 98.8786 69.821 34.4996 69.821Z" fill="#DAEAF4"/>
<path d="M34.5001 283.135C-18.7287 283.135 -62.1348 239.862 -62.1348 186.5C-62.1348 133.139 -18.8615 89.8652 34.5001 89.8652C87.8617 89.8652 131.135 133.139 131.135 186.5C131.135 239.862 87.7289 283.135 34.5001 283.135ZM34.5001 92.3873C-17.4013 92.3873 -59.7454 134.599 -59.7454 186.633C-59.7454 238.667 -17.534 280.878 34.5001 280.878C86.5343 280.878 128.746 238.667 128.746 186.633C128.746 134.599 86.4016 92.3873 34.5001 92.3873Z" fill="#DAEAF4"/>
<path d="M34.4997 260.569C-6.38428 260.569 -39.5693 227.384 -39.5693 186.5C-39.5693 145.616 -6.38428 112.431 34.4997 112.431C75.3837 112.431 108.569 145.616 108.569 186.5C108.569 227.384 75.3837 260.569 34.4997 260.569ZM34.4997 114.82C-5.05688 114.82 -37.18 146.943 -37.18 186.5C-37.18 226.056 -5.05688 258.179 34.4997 258.179C74.0563 258.179 106.179 226.056 106.179 186.5C106.179 146.943 74.0563 114.82 34.4997 114.82Z" fill="#DAEAF4"/>
<path d="M34.5002 238.136C6.09381 238.136 -17.1357 215.039 -17.1357 186.5C-17.1357 157.961 5.96107 134.864 34.5002 134.864C63.0394 134.864 86.1361 157.961 86.1361 186.5C86.1361 215.039 62.9066 238.136 34.5002 238.136ZM34.5002 137.254C7.42121 137.254 -14.7464 159.288 -14.7464 186.5C-14.7464 213.712 7.28847 235.747 34.5002 235.747C61.712 235.747 83.7468 213.712 83.7468 186.5C83.7468 159.288 61.712 137.254 34.5002 137.254Z" fill="#DAEAF4"/>
<path d="M34.5007 215.704C18.4391 215.704 5.29785 202.695 5.29785 186.501C5.29785 170.306 18.3064 157.298 34.5007 157.298C50.695 157.298 63.7035 170.306 63.7035 186.501C63.7035 202.695 50.5623 215.704 34.5007 215.704ZM34.5007 159.82C19.7665 159.82 7.81991 171.767 7.81991 186.501C7.81991 201.235 19.7665 213.181 34.5007 213.181C49.2349 213.181 61.1815 201.235 61.1815 186.501C61.1815 171.767 49.2349 159.82 34.5007 159.82Z" fill="#DAEAF4"/>
</g>
</g>
<defs>
<clipPath id="clip0_1_13528">
<rect width="221" height="256" rx="17" fill="white"/>
</clipPath>
</defs>
</svg>
