<svg width="437" height="292" viewBox="0 0 437 292" fill="none" xmlns="http://www.w3.org/2000/svg">
<g clip-path="url(#clip0_1_13546)">
<path d="M174.383 13.8196C165.134 13.8196 157.308 21.6457 157.308 30.8947C157.308 40.1437 165.134 47.9697 174.383 47.9697C183.632 47.9697 191.458 40.1437 191.458 30.8947C191.458 21.6457 183.632 13.8196 174.383 13.8196Z" fill="#DAEAF4" fill-opacity="0.1"/>
<path d="M95.412 13.8196C86.163 13.8196 78.3369 21.6457 78.3369 30.8947C78.3369 40.1437 86.163 47.9697 95.412 47.9697C104.661 47.9697 112.487 40.1437 112.487 30.8947C112.487 21.6457 105.372 13.8196 95.412 13.8196Z" fill="#DAEAF4" fill-opacity="0.1"/>
<path d="M17.1512 13.8196C7.90221 13.8196 0.0761707 21.6457 0.0761711 30.8947C0.0761715 40.1437 7.90222 47.9697 17.1512 47.9697C26.4002 47.9697 34.2263 40.1437 34.2263 30.8947C34.2263 21.6457 26.4002 13.8196 17.1512 13.8196Z" fill="#DAEAF4" fill-opacity="0.1"/>
<path d="M174.383 94.9231C165.134 94.9231 157.308 102.749 157.308 111.998C157.308 121.247 165.134 129.073 174.383 129.073C183.632 129.073 191.458 121.247 191.458 111.998C191.458 102.749 183.632 94.9231 174.383 94.9231Z" fill="#DAEAF4" fill-opacity="0.1"/>
<path d="M95.412 94.9231C86.163 94.9231 78.3369 102.749 78.3369 111.998C78.3369 121.247 86.163 129.073 95.412 129.073C104.661 129.073 112.487 121.247 112.487 111.998C112.487 102.749 105.372 94.9231 95.412 94.9231Z" fill="#DAEAF4" fill-opacity="0.1"/>
<path d="M17.1512 94.9231C7.90221 94.9231 0.0761707 102.749 0.0761711 111.998C0.0761715 121.247 7.90222 129.073 17.1512 129.073C26.4002 129.073 34.2263 121.247 34.2263 111.998C34.2263 102.749 26.4002 94.9231 17.1512 94.9231Z" fill="#DAEAF4" fill-opacity="0.1"/>
<path d="M174.383 176.74C165.134 176.74 157.308 184.566 157.308 193.815C157.308 203.064 165.134 210.89 174.383 210.89C183.632 210.89 191.458 203.064 191.458 193.815C191.458 184.566 183.632 176.74 174.383 176.74Z" fill="#DAEAF4" fill-opacity="0.1"/>
<path d="M95.412 176.74C86.163 176.74 78.3369 184.566 78.3369 193.815C78.3369 203.064 86.163 210.89 95.412 210.89C104.661 210.89 112.487 203.064 112.487 193.815C112.487 184.566 105.372 176.74 95.412 176.74Z" fill="#DAEAF4" fill-opacity="0.1"/>
<path d="M17.1512 176.74C7.90221 176.74 0.0761707 184.566 0.0761711 193.815C0.0761715 203.064 7.90222 210.89 17.1512 210.89C26.4002 210.89 34.2263 203.064 34.2263 193.815C34.2263 184.566 26.4002 176.74 17.1512 176.74Z" fill="#DAEAF4" fill-opacity="0.1"/>
<path d="M174.383 257.85C165.134 257.85 157.308 265.676 157.308 274.925C157.308 284.174 165.134 292 174.383 292C183.632 292 191.458 284.174 191.458 274.925C191.458 265.676 183.632 257.85 174.383 257.85Z" fill="#DAEAF4" fill-opacity="0.1"/>
<path d="M95.412 257.85C86.163 257.85 78.3369 265.676 78.3369 274.925C78.3369 284.174 86.163 292 95.412 292C104.661 292 112.487 284.174 112.487 274.925C112.487 265.676 105.372 257.85 95.412 257.85Z" fill="#DAEAF4" fill-opacity="0.1"/>
<path d="M17.1512 257.85C7.90221 257.85 0.0761707 265.676 0.0761711 274.925C0.0761715 284.174 7.90222 292 17.1512 292C26.4002 292 34.2263 284.174 34.2263 274.925C34.2263 265.676 26.4002 257.85 17.1512 257.85Z" fill="#DAEAF4" fill-opacity="0.1"/>
<path d="M426.956 30.8947C426.956 21.4644 419.311 13.8196 409.881 13.8196C400.45 13.8196 392.806 21.4644 392.806 30.8947C392.806 40.325 400.45 47.9697 409.881 47.9697C419.311 47.9697 426.956 40.325 426.956 30.8947Z" fill="#DAEAF4" fill-opacity="0.1"/>
<path d="M331.62 13.8196C322.371 13.8196 314.545 21.6457 314.545 30.8947C314.545 40.1437 322.371 47.9697 331.62 47.9697C340.869 47.9697 348.695 40.1437 348.695 30.8947C348.695 21.6457 340.869 13.8196 331.62 13.8196Z" fill="#DAEAF4" fill-opacity="0.1"/>
<path d="M269.718 30.8947C269.718 21.4644 262.074 13.8196 252.643 13.8196C243.213 13.8196 235.568 21.4644 235.568 30.8947C235.568 40.325 243.213 47.9697 252.643 47.9697C262.074 47.9697 269.718 40.325 269.718 30.8947Z" fill="#DAEAF4" fill-opacity="0.1"/>
<path d="M409.881 94.9231C400.632 94.9231 392.806 102.749 392.806 111.998C392.806 121.247 400.632 129.073 409.881 129.073C419.13 129.073 426.956 121.247 426.956 111.998C427.667 102.749 419.841 94.9231 409.881 94.9231Z" fill="#DAEAF4" fill-opacity="0.1"/>
<path d="M331.62 94.9231C322.371 94.9231 314.545 102.749 314.545 111.998C314.545 121.247 322.371 129.073 331.62 129.073C340.869 129.073 348.695 121.247 348.695 111.998C348.695 102.749 340.869 94.9231 331.62 94.9231Z" fill="#DAEAF4" fill-opacity="0.1"/>
<path d="M252.643 94.9231C243.394 94.9231 235.568 102.749 235.568 111.998C235.568 121.247 243.394 129.073 252.643 129.073C261.892 129.073 269.718 121.247 269.718 111.998C270.43 102.749 262.604 94.9231 252.643 94.9231Z" fill="#DAEAF4" fill-opacity="0.1"/>
<path d="M409.881 176.74C400.632 176.74 392.806 184.566 392.806 193.815C392.806 203.064 400.632 210.89 409.881 210.89C419.13 210.89 426.956 203.064 426.956 193.815C427.667 184.566 419.841 176.74 409.881 176.74Z" fill="#DAEAF4" fill-opacity="0.1"/>
<path d="M331.62 176.74C322.371 176.74 314.545 184.566 314.545 193.815C314.545 203.064 322.371 210.89 331.62 210.89C340.869 210.89 348.695 203.064 348.695 193.815C348.695 184.566 340.869 176.74 331.62 176.74Z" fill="#DAEAF4" fill-opacity="0.1"/>
<path d="M252.643 176.74C243.394 176.74 235.568 184.566 235.568 193.815C235.568 203.064 243.394 210.89 252.643 210.89C261.892 210.89 269.718 203.064 269.718 193.815C270.43 184.566 262.604 176.74 252.643 176.74Z" fill="#DAEAF4" fill-opacity="0.1"/>
<path d="M409.881 257.85C400.632 257.85 392.806 265.676 392.806 274.925C392.806 284.174 400.632 292 409.881 292C419.13 292 426.956 284.174 426.956 274.925C426.956 265.676 419.841 257.85 409.881 257.85Z" fill="#DAEAF4" fill-opacity="0.1"/>
<path d="M331.62 257.85C322.371 257.85 314.545 265.676 314.545 274.925C314.545 284.174 322.371 292 331.62 292C340.869 292 348.695 284.174 348.695 274.925C348.695 265.676 340.869 257.85 331.62 257.85Z" fill="#DAEAF4" fill-opacity="0.1"/>
<path d="M252.643 257.85C243.394 257.85 235.568 265.676 235.568 274.925C235.568 284.174 243.394 292 252.643 292C261.892 292 269.718 284.174 269.718 274.925C269.718 265.676 262.604 257.85 252.643 257.85Z" fill="#DAEAF4" fill-opacity="0.1"/>
</g>
<defs>
<clipPath id="clip0_1_13546">
<rect width="437" height="292" rx="17" fill="white"/>
</clipPath>
</defs>
</svg>
