<svg width="68" height="100" viewBox="0 0 68 100" fill="none" xmlns="http://www.w3.org/2000/svg">
<g opacity="0.7">
<path fill-rule="evenodd" clip-rule="evenodd" d="M67.7931 10.971C67.7931 11.3273 67.7931 11.6327 67.7931 11.9381C67.7931 36.066 67.7931 60.143 67.7931 84.271C67.7931 86.1544 67.1314 87.1724 65.2989 87.376C63.5682 87.5796 61.7866 87.4269 59.9541 87.4269C59.9541 87.1215 59.9541 86.8161 59.9541 86.5107C59.9541 62.4337 59.9541 38.3567 59.9541 14.2288C59.9541 12.2436 60.6667 11.2255 62.5501 11.0219C64.2299 10.8183 66.0115 10.971 67.7931 10.971Z" fill="#213039"/>
<path fill-rule="evenodd" clip-rule="evenodd" d="M8.49178 30.6704C8.49178 31.1286 8.49178 31.4849 8.49178 31.7903C8.49178 53.3731 8.49178 74.9558 8.49178 96.5386C8.49178 98.8292 7.52463 99.8473 5.23401 99.9491C3.96144 100 2.68887 99.9491 1.4163 100C0.907274 100 0.652755 99.7964 0.703658 99.2873C0.703658 99.0328 0.703658 98.7783 0.703658 98.5238C0.703658 77.2464 0.703658 55.9182 0.703658 34.6409C0.703658 31.8921 1.4672 30.8231 4.67407 30.7213C5.84484 30.6195 7.11741 30.6704 8.49178 30.6704Z" fill="#213039"/>
<path fill-rule="evenodd" clip-rule="evenodd" d="M55.8317 18.1991C55.8317 18.6064 55.8826 18.9627 55.8826 19.319C55.8826 40.9018 55.8826 62.4845 55.8826 84.0673C55.8826 86.4088 54.9154 87.4269 52.523 87.5287C51.3013 87.5796 50.0288 87.5287 48.8071 87.5796C48.2472 87.5796 48.0435 87.376 48.0945 86.816C48.1454 86.4088 48.0945 85.9507 48.0945 85.4926C48.0945 64.317 48.0945 43.1415 48.0945 21.915C48.0945 19.319 48.9089 18.3518 51.5558 18.1991C52.9302 18.1482 54.3046 18.1991 55.8317 18.1991Z" fill="#213039"/>
<path fill-rule="evenodd" clip-rule="evenodd" d="M32.2638 30.7214C32.2638 31.1795 32.2638 31.5358 32.2638 31.8413C32.2638 49.1991 32.2638 66.6078 32.2638 83.9657C32.2638 86.3581 31.2967 87.3762 28.9042 87.478C27.5299 87.5289 26.2064 87.478 24.832 87.478C24.7302 87.478 24.6284 87.427 24.4248 87.3761C24.4248 87.0198 24.4248 86.6635 24.4248 86.2563C24.4248 68.9494 24.4248 51.6933 24.4248 34.3864C24.4248 31.8413 25.1374 30.9759 27.6317 30.6705C29.057 30.5687 30.584 30.7214 32.2638 30.7214Z" fill="#213039"/>
<path fill-rule="evenodd" clip-rule="evenodd" d="M44.073 30.6704C44.073 31.0776 44.073 31.434 44.073 31.7394C44.073 49.2499 44.073 66.7096 44.073 84.2201C44.073 86.4089 43.1058 87.427 40.8661 87.5288C39.5426 87.5797 38.27 87.5288 36.9466 87.5797C36.4375 87.5797 36.183 87.3761 36.2339 86.867C36.2339 86.6125 36.2339 86.358 36.2339 86.1035C36.2339 69.0002 36.2339 51.8969 36.2339 34.7935C36.2339 32.0957 36.7939 30.874 40.3062 30.7722C41.4769 30.6704 42.6986 30.6704 44.073 30.6704Z" fill="#213039"/>
<path fill-rule="evenodd" clip-rule="evenodd" d="M12.5645 87.5288C12.5645 87.0198 12.5645 86.6126 12.5645 86.2054C12.5645 68.8984 12.5645 51.6424 12.5645 34.3354C12.5645 31.8412 13.1753 31.0268 15.6695 30.7214C17.1966 30.5686 18.7237 30.6705 20.3017 30.6705C20.3017 31.0268 20.3526 31.3831 20.3526 31.6885C20.3526 49.1481 20.3526 66.6078 20.3526 84.0674C20.3526 86.3581 19.3854 87.3761 17.1457 87.427C15.6695 87.5288 14.1933 87.5288 12.5645 87.5288Z" fill="#213039"/>
<path fill-rule="evenodd" clip-rule="evenodd" d="M16.4325 26.2929C14.1927 26.2929 12.4111 24.5113 12.4111 22.3225C12.4111 20.0828 14.2436 18.1994 16.4834 18.2503C18.7231 18.2503 20.5047 20.0828 20.5047 22.3734C20.4538 24.5622 18.7231 26.2929 16.4325 26.2929Z" fill="#213039"/>
<path fill-rule="evenodd" clip-rule="evenodd" d="M40.1531 26.2928C37.8625 26.2928 36.1318 24.5621 36.1318 22.2205C36.1318 19.9808 37.9643 18.1992 40.1531 18.1992C42.3929 18.1992 44.2254 20.0826 44.1745 22.3223C44.1745 24.5112 42.3929 26.2928 40.1531 26.2928Z" fill="#213039"/>
<path fill-rule="evenodd" clip-rule="evenodd" d="M28.2929 26.2929C26.0532 26.2929 24.2716 24.5622 24.2207 22.3225C24.2207 20.0828 26.0532 18.1994 28.2929 18.2503C30.5326 18.2503 32.3651 20.1337 32.3142 22.3734C32.3142 24.5622 30.5326 26.2929 28.2929 26.2929Z" fill="#213039"/>
<path fill-rule="evenodd" clip-rule="evenodd" d="M55.8318 94.8587C55.8318 97.0475 53.9993 98.88 51.8105 98.88C49.5708 98.88 47.7383 97.0475 47.7383 94.8078C47.7383 92.5681 49.5199 90.8374 51.7596 90.8374C54.1011 90.8374 55.8318 92.5681 55.8318 94.8587Z" fill="#213039"/>
<path fill-rule="evenodd" clip-rule="evenodd" d="M67.7424 7.66241C65.1463 7.66241 62.6012 7.66241 60.0561 7.66241C59.547 3.89561 63.8229 -0.380221 67.7424 0.0270009C67.7424 2.52124 67.7424 5.01547 67.7424 7.66241Z" fill="#213039"/>
</g>
</svg>
