<svg width="179" height="100" viewBox="0 0 179 100" fill="none" xmlns="http://www.w3.org/2000/svg">
<g opacity="0.7" clip-path="url(#clip0_1_9482)">
<mask id="mask0_1_9482" style="mask-type:luminance" maskUnits="userSpaceOnUse" x="0" y="0" width="179" height="100">
<path d="M178.065 0H0V100H178.065V0Z" fill="white"/>
</mask>
<g mask="url(#mask0_1_9482)">
<path d="M109.267 76.3341L110.501 77.4309V27.2231L109.267 26.8115V76.3341Z" fill="#213039"/>
<path d="M92.8057 54.9322C92.8057 52.6 92.9431 50.2684 92.8057 48.0729C92.8074 47.1593 92.4731 46.277 91.8663 45.594C91.2596 44.9109 90.4228 44.475 89.5154 44.369C88.0063 44.2316 86.3605 44.369 84.7141 44.369V54.9322H92.8057ZM67.016 42.0374H69.485V54.9322H81.9683V42.0393C85.2586 42.1768 88.416 41.6277 91.4341 42.451C92.4041 42.7329 93.2651 43.3038 93.9023 44.0876C94.5395 44.8715 94.9226 45.8309 95.0005 46.838C95.2747 50.2677 95.0005 53.6968 95.0005 57.1264H39.8541C35.327 57.1264 34.0928 55.8916 34.0928 51.3651V34.6316H36.5618V52.0509C36.5618 54.3832 37.1102 54.9316 39.4424 54.9316H50.8283V43.1368H53.2973V54.9322H58.9218V43.1368H61.5283V54.9322H67.0154L67.016 42.0374Z" fill="#213039"/>
<path d="M13.7894 54.9349H26.8216V42.0394H29.2906V57.129H0.0712891V54.9355H11.4571C11.4154 52.1842 11.2321 49.437 10.9081 46.7045C10.6339 45.0581 9.12484 44.2355 6.93 44.0981H2.40355V42.0407C4.68794 41.9034 6.97851 41.9034 9.2629 42.0407C12.0068 42.4523 13.5158 44.5097 13.65 47.391C13.7874 49.3116 13.65 51.369 13.65 53.2897C13.7584 53.8315 13.8045 54.3839 13.7874 54.9361" fill="#213039"/>
<path d="M14.2009 61.2445V74.6883H12.5545V63.1651H12.4145C12.277 63.4393 12.1403 63.5767 12.1403 63.8509C10.9054 67.2806 9.67123 70.5729 8.43639 74.0025C8.42698 74.1281 8.38814 74.2497 8.32303 74.3575C8.25791 74.4653 8.16835 74.5562 8.06157 74.623C7.9548 74.6898 7.83381 74.7305 7.70839 74.7418C7.58297 74.7532 7.45665 74.7348 7.33962 74.6883H6.65575C6.24414 74.8258 5.96994 74.5509 5.83252 74.1393C4.59768 70.7096 3.22607 67.1432 1.99123 63.7135C1.95714 63.5071 1.86158 63.3157 1.71704 63.1645V74.6877H0.208008V61.2445H2.81446L7.06736 73.0419C7.18378 72.6237 7.32116 72.2115 7.47897 71.8071C8.71381 68.5167 9.94801 65.2225 11.1828 61.7929C11.236 61.5835 11.3615 61.3998 11.5373 61.2742C11.713 61.1487 11.9276 61.0894 12.1428 61.107C12.8224 61.221 13.5116 61.2671 14.2003 61.2445M56.8635 61.2445H58.5099C58.7841 61.2445 58.9215 61.5187 59.059 61.7935C61.2525 65.0838 63.3119 68.378 65.5067 71.6703C65.6461 71.9306 65.8322 72.1631 66.0557 72.3561V61.3819H67.5648V74.8258H65.9177C65.7803 74.8258 65.5061 74.5516 65.3686 74.4142C63.1751 71.1238 60.9815 67.8296 58.9209 64.4C58.7542 64.115 58.5709 63.8401 58.3719 63.5767V74.8258H56.8661L56.8635 61.2445ZM85.397 62.6161V73.3161H89.1009C91.5699 73.1787 92.9422 72.2193 93.2164 70.1606C93.3537 68.7463 93.3537 67.322 93.2164 65.9077C93.1791 65.1648 92.8852 64.4578 92.3848 63.9074C91.8844 63.357 91.2085 62.9973 90.4725 62.8896C88.8267 62.7535 87.1809 62.7535 85.3977 62.6167L85.397 62.6161ZM83.7506 61.3813C86.0828 61.3813 88.2777 61.2438 90.4725 61.3813C91.5624 61.4673 92.5905 61.9216 93.3878 62.6696C94.1852 63.4176 94.7042 64.4146 94.8596 65.4967C95.2026 67.1251 95.2026 68.8071 94.8596 70.4354C94.6777 71.6668 94.0422 72.7856 93.0777 73.5724C92.1132 74.3591 90.8895 74.7569 89.6467 74.6877C87.7261 74.8251 85.8054 74.6877 83.748 74.6877L83.7506 61.3813ZM17.9048 61.2445H19.5512V69.4754C19.5512 72.3561 20.5112 73.3167 23.3925 73.3167H26.6828V61.2445H28.3293V74.5509C28.3293 74.5874 28.3148 74.6223 28.289 74.6481C28.2633 74.6739 28.2283 74.6883 28.1919 74.6883C26.1345 74.6883 24.0764 74.8258 22.1557 74.6883C21.6066 74.7216 21.0567 74.6379 20.5423 74.4428C20.028 74.2477 19.5609 73.9457 19.1719 73.5567C18.7829 73.1678 18.4809 72.7006 18.2858 72.1863C18.0907 71.6719 18.007 71.122 18.0403 70.5729C17.7661 67.5548 17.9028 64.4 17.9028 61.2445M48.6312 63.0277H48.4938L46.0274 69.7503H51.2403L48.6338 63.0283M42.3235 74.8258L47.5364 61.3819H47.6738C49.457 61.2445 49.457 61.2445 50.0061 62.8909C51.5151 66.5948 52.8867 70.2987 54.3932 74.14C54.5053 74.407 54.5969 74.6822 54.6674 74.9632H53.1596C53.0625 74.9336 52.9742 74.8806 52.9024 74.8088C52.8306 74.737 52.7776 74.6487 52.748 74.5516C52.4738 73.7284 52.0622 72.9051 51.788 71.9451C51.6506 71.5335 51.5138 71.3961 50.9648 71.3961H45.8893C45.7089 71.3724 45.526 71.4151 45.3746 71.516C45.2232 71.617 45.1136 71.7695 45.0661 71.9451C44.7311 72.6998 44.4558 73.4796 44.2428 74.2774C44.1054 74.8264 43.8312 74.9632 43.2828 74.9632C43.1454 74.689 42.7345 74.8258 42.3235 74.8258ZM40.5396 61.3819V62.7535H34.9151C34.6499 62.7697 34.391 62.8408 34.1547 62.9623C33.9183 63.0837 33.7098 63.2528 33.5422 63.459C33.3746 63.6652 33.2516 63.9039 33.181 64.16C33.1103 64.4161 33.0936 64.6841 33.1319 64.947C33.0814 65.4736 33.2401 65.9989 33.5738 66.4094C33.9075 66.8198 34.3893 67.0825 34.9151 67.1406H37.2467C40.537 67.278 41.3622 69.198 40.9506 71.8045C40.9152 72.5808 40.5817 73.3137 40.0195 73.8503C39.4573 74.3869 38.7097 74.6859 37.9325 74.6851C35.8751 74.8225 33.6796 74.6851 31.6222 74.6851V73.3135H36.8351C38.6183 73.3135 39.3041 72.4903 39.3041 70.7071C39.3324 70.4299 39.2986 70.1499 39.2052 69.8875C39.1118 69.625 38.9611 69.3866 38.7641 69.1897C38.5671 68.9927 38.3287 68.842 38.0663 68.7486C37.8038 68.6552 37.5239 68.6214 37.2467 68.6496H34.9151C32.0345 68.5122 31.0738 66.729 31.3486 64.2625C31.3468 63.86 31.4294 63.4616 31.591 63.093C31.7526 62.7243 31.9896 62.3936 32.2869 62.1222C32.5841 61.8508 32.935 61.6447 33.3167 61.5172C33.6985 61.3897 34.1028 61.3436 34.5035 61.3819C36.5609 61.2445 38.619 61.3819 40.5396 61.3819ZM81.5564 73.0425H72.6396V69.0645H80.7332V67.2812H72.777V63.1651H80.8706V61.5187H71.1286V74.9625H81.6912L81.5564 73.0425Z" fill="#213039"/>
<path d="M26.9587 37.238C26.8213 37.238 26.8213 37.238 26.8213 37.3755V39.7077C26.8213 39.8451 26.8213 39.8451 26.9587 39.8451H29.0161C29.1536 39.8451 29.1536 39.8451 29.1536 39.7077V37.3755C29.1536 37.238 29.1536 37.238 29.0161 37.238H26.9587Z" fill="#213039"/>
<path d="M168.529 54.5233H156.593L151.792 59.462V70.4362H130.392V35.3182L148.088 27.4988L151.379 26.1272L145.48 23.5208L125.589 32.1659L125.726 70.4395L130.39 75.2407V75.1033L130.528 75.2407H151.791L156.73 79.082V75.2407H168.527V70.4395H156.73V59.4614H168.527V75.2369L173.466 70.4356V59.3246L168.529 54.5233Z" fill="#213039"/>
<path d="M151.245 20.9136L145.209 23.52L173.057 35.5916V42.1768H177.995V32.711L151.245 20.9136Z" fill="#213039"/>
</g>
</g>
<defs>
<clipPath id="clip0_1_9482">
<rect width="178.065" height="100" fill="white"/>
</clipPath>
</defs>
</svg>
