<svg width="258" height="79" viewBox="0 0 258 79" fill="none" xmlns="http://www.w3.org/2000/svg">
<g opacity="0.7" clip-path="url(#clip0_1_9438)">
<path d="M3.74648 44.9466C3.90168 44.9629 4.05859 44.9463 4.20689 44.8977C4.35519 44.8492 4.49151 44.7699 4.60689 44.665C4.72226 44.5601 4.81408 44.4321 4.87629 44.2892C4.93851 44.1464 4.96971 43.992 4.96784 43.8363C4.96784 43.5128 4.8391 43.2026 4.60994 42.9739C4.38078 42.7452 4.06997 42.6167 3.74589 42.6167C3.42181 42.6167 3.111 42.7452 2.88184 42.9739C2.65268 43.2026 2.52394 43.5128 2.52394 43.8363C2.52319 43.9917 2.55515 44.1455 2.61773 44.2878C2.68032 44.4301 2.77215 44.5578 2.88728 44.6624C3.0024 44.7671 3.13826 44.8464 3.28606 44.8954C3.43387 44.9443 3.5915 44.9618 3.74648 44.9466Z" fill="#213039"/>
<path d="M6.9828 44.9466C7.13801 44.9629 7.29492 44.9463 7.44322 44.8977C7.59151 44.8492 7.72783 44.7699 7.84321 44.665C7.95858 44.5601 8.0504 44.4321 8.11261 44.2892C8.17482 44.1464 8.20602 43.992 8.20416 43.8363C8.20416 43.5128 8.07542 43.2026 7.84626 42.9739C7.6171 42.7452 7.30629 42.6167 6.98221 42.6167C6.65813 42.6167 6.34732 42.7452 6.11816 42.9739C5.889 43.2026 5.76027 43.5128 5.76027 43.8363C5.75952 43.9917 5.79147 44.1455 5.85405 44.2878C5.91664 44.4301 6.00848 44.5578 6.12361 44.6624C6.23873 44.7671 6.37459 44.8464 6.52239 44.8954C6.67019 44.9443 6.82783 44.9618 6.9828 44.9466Z" fill="#213039"/>
<path d="M9.85466 56.9397C9.70082 56.9273 9.54607 56.9464 9.39992 56.9959C9.25378 57.0454 9.11935 57.1243 9.00492 57.2277C8.89049 57.3311 8.79848 57.4567 8.73456 57.5969C8.67065 57.7371 8.63619 57.8889 8.6333 58.0429C8.6333 58.3664 8.76204 58.6766 8.9912 58.9053C9.22036 59.134 9.53117 59.2625 9.85525 59.2625C10.1793 59.2625 10.4901 59.134 10.7193 58.9053C10.9485 58.6766 11.0772 58.3664 11.0772 58.0429C11.0743 57.8889 11.0398 57.7371 10.9759 57.5969C10.912 57.4567 10.82 57.3311 10.7056 57.2277C10.5912 57.1243 10.4567 57.0454 10.3106 56.9959C10.1644 56.9464 10.0085 56.9273 9.85466 56.9397Z" fill="#213039"/>
<path d="M13.0563 56.9402C12.9025 56.9278 12.7477 56.9469 12.6016 56.9964C12.4554 57.046 12.321 57.1248 12.2066 57.2282C12.0921 57.3316 12.0001 57.4572 11.9362 57.5974C11.8723 57.7376 11.8379 57.8894 11.835 58.0434C11.835 58.3669 11.9637 58.6771 12.1929 58.9058C12.422 59.1345 12.7328 59.263 13.0569 59.263C13.381 59.263 13.6918 59.1345 13.921 58.9058C14.1501 58.6771 14.2789 58.3669 14.2789 58.0434C14.2768 57.8892 14.243 57.7369 14.1793 57.5963C14.1157 57.4557 14.0237 57.3297 13.9091 57.2262C13.7945 57.1226 13.6597 57.0438 13.5132 56.9946C13.3666 56.9454 13.2103 56.9269 13.0563 56.9402Z" fill="#213039"/>
<path d="M20.6296 50.9321C20.6049 50.6121 20.6487 50.2905 20.7579 49.9886C20.8671 49.6867 21.0392 49.4114 21.2629 49.1808C21.4867 48.9502 21.7569 48.7697 22.0557 48.6512C22.3546 48.5326 22.6753 48.4787 22.9965 48.493C23.8204 48.5227 24.628 48.7306 25.3635 49.1025L25.9742 47.3095C24.9865 46.8481 23.9168 46.5871 22.8273 46.5417C22.2833 46.4975 21.7361 46.5717 21.2236 46.759C20.7111 46.9463 20.2454 47.2424 19.8586 47.6267C19.4718 48.0111 19.1732 48.4746 18.9832 48.9853C18.7933 49.496 18.7166 50.0417 18.7585 50.5848C18.7971 51.5738 19.0036 52.5492 19.3691 53.4692H15.2269V46.6645H13.2967V53.481H8.08459V46.6645H4.96848C1.97426 46.6645 -0.00216783 48.4941 -0.00216783 51.0549C-0.00896616 51.6585 0.111008 52.2568 0.35001 52.8114C0.589013 53.3659 0.941749 53.8643 1.3855 54.2744C1.82925 54.6846 2.35416 54.9974 2.92643 55.1928C3.49869 55.3882 4.10563 55.4617 4.70811 55.4087H26.334V53.4633H21.5314C20.9917 52.7244 20.6784 51.8452 20.6296 50.9321ZM6.19102 53.481H4.54124C4.19899 53.5137 3.85367 53.4752 3.5271 53.3679C3.20053 53.2606 2.89982 53.0868 2.64399 52.8576C2.38816 52.6283 2.18276 52.3486 2.0408 52.0361C1.89883 51.7236 1.82338 51.3851 1.81922 51.0419C1.81959 50.6977 1.89249 50.3573 2.03319 50.043C2.17389 49.7286 2.37924 49.4473 2.63592 49.2173C2.8926 48.9873 3.19487 48.8138 3.52312 48.7079C3.85136 48.602 4.19824 48.5662 4.54124 48.6028H6.19102V53.481Z" fill="#213039"/>
<path d="M43.5785 45.3433C43.7337 45.3596 43.8906 45.343 44.0389 45.2945C44.1872 45.246 44.3235 45.1666 44.4389 45.0618C44.5543 44.9569 44.6461 44.8288 44.7083 44.686C44.7705 44.5431 44.8017 44.3887 44.7999 44.233C44.7999 43.9095 44.6711 43.5993 44.442 43.3706C44.2128 43.1419 43.902 43.0134 43.5779 43.0134C43.2538 43.0134 42.943 43.1419 42.7139 43.3706C42.4847 43.5993 42.356 43.9095 42.356 44.233C42.3561 44.3881 42.3887 44.5415 42.4516 44.6834C42.5145 44.8253 42.6063 44.9525 42.7212 45.057C42.8362 45.1615 42.9716 45.2409 43.119 45.2902C43.2664 45.3395 43.4237 45.3576 43.5785 45.3433Z" fill="#213039"/>
<path d="M46.8063 45.3415C46.9594 45.3537 47.1134 45.3342 47.2585 45.2841C47.4037 45.234 47.5369 45.1545 47.6497 45.0505C47.7626 44.9466 47.8526 44.8204 47.9142 44.68C47.9758 44.5396 48.0076 44.388 48.0076 44.2347C48.0076 44.0814 47.9758 43.9298 47.9142 43.7894C47.8526 43.649 47.7626 43.5229 47.6497 43.4189C47.5369 43.3149 47.4037 43.2354 47.2585 43.1853C47.1134 43.1353 46.9594 43.1157 46.8063 43.128C46.6525 43.1155 46.4977 43.1346 46.3516 43.1842C46.2054 43.2337 46.071 43.3126 45.9566 43.4159C45.8422 43.5193 45.7501 43.645 45.6862 43.7852C45.6223 43.9254 45.5879 44.0772 45.585 44.2312C45.5851 44.3863 45.6177 44.5397 45.6806 44.6816C45.7435 44.8235 45.8353 44.9507 45.9502 45.0552C46.0652 45.1597 46.2007 45.2391 46.3481 45.2884C46.4955 45.3377 46.6515 45.3558 46.8063 45.3415Z" fill="#213039"/>
<path d="M55.5545 46.4683C54.4281 46.5007 53.3268 46.8086 52.3473 47.3648L53.0503 49.1366C53.7511 48.6566 54.5828 48.4034 55.4327 48.4114C57.7783 48.4114 58.2304 51.128 59.5441 53.4904H49.7081V46.6738H47.7779V53.4856H42.5516V51.1233C42.5516 48.3369 40.8343 46.4707 38.2745 46.4707C35.6968 46.4707 33.9974 48.331 33.9974 51.1115V51.0749C33.9974 52.7391 33.1914 53.4833 31.6576 53.4833H30.3132V43.115H28.3853V55.4204H31.6635C32.274 55.5063 32.8963 55.4189 33.4594 55.1682C34.0224 54.9176 34.5033 54.5137 34.8471 54.003C35.2618 54.507 35.7954 54.9003 36.4 55.1477C37.0046 55.3951 37.6613 55.4888 38.3111 55.4204H62.1383V53.4856C60.2897 52.6694 60.253 46.4683 55.5545 46.4683ZM40.6225 53.4856H38.2555C37.9349 53.5147 37.6119 53.4726 37.3095 53.3623C37.0072 53.252 36.733 53.0763 36.5068 52.8478C36.2805 52.6192 36.1077 52.3435 36.0009 52.0405C35.894 51.7375 35.8556 51.4145 35.8886 51.095C35.8494 50.7608 35.8814 50.4221 35.9823 50.1011C36.0832 49.78 36.2508 49.4838 36.4742 49.2318C36.6975 48.9798 36.9716 48.7776 37.2786 48.6385C37.5855 48.4994 37.9184 48.4264 38.2555 48.4243C38.5921 48.4263 38.9244 48.4994 39.2306 48.6387C39.5369 48.7781 39.8101 48.9805 40.0323 49.2328C40.2546 49.485 40.4208 49.7814 40.5201 50.1023C40.6193 50.4233 40.6494 50.7616 40.6083 51.095L40.6225 53.4856Z" fill="#213039"/>
<path d="M56.7877 56.9399C56.5285 56.9608 56.2846 57.0702 56.0969 57.2497C55.9091 57.4293 55.7891 57.6679 55.7571 57.9253C55.7251 58.1828 55.783 58.4435 55.9211 58.6633C56.0592 58.8832 56.269 59.0488 56.5151 59.1323C56.7613 59.2158 57.0287 59.212 57.2724 59.1216C57.5161 59.0313 57.7211 58.8598 57.853 58.6362C57.9848 58.4125 58.0353 58.1504 57.996 57.8939C57.9568 57.6374 57.8301 57.4023 57.6374 57.2281C57.5232 57.1244 57.3888 57.0453 57.2426 56.9957C57.0964 56.9461 56.9415 56.9271 56.7877 56.9399Z" fill="#213039"/>
<path d="M71.3464 53.483H64.4976V55.4284H73.2767V43.1289H71.3464V53.483Z" fill="#213039"/>
<path d="M68.4887 44.3354H66.5454V52.4512H68.4887V44.3354Z" fill="#213039"/>
<path d="M77.7267 43.1289H75.7964V55.4272H77.7267V43.1289Z" fill="#213039"/>
<path d="M84.5869 43.8357C84.5869 44.0767 84.6585 44.3124 84.7927 44.5129C84.927 44.7133 85.1177 44.8696 85.3409 44.9618C85.5641 45.0541 85.8096 45.0782 86.0465 45.0312C86.2835 44.9842 86.5011 44.8681 86.6719 44.6976C86.8427 44.5271 86.959 44.3099 87.0061 44.0735C87.0533 43.837 87.0291 43.5919 86.9367 43.3692C86.8442 43.1464 86.6877 42.9561 86.4868 42.8221C86.286 42.6882 86.0498 42.6167 85.8083 42.6167C85.6479 42.6167 85.4891 42.6482 85.3409 42.7095C85.1927 42.7707 85.058 42.8605 84.9446 42.9737C84.8312 43.0869 84.7413 43.2213 84.6799 43.3692C84.6185 43.5171 84.5869 43.6756 84.5869 43.8357Z" fill="#213039"/>
<path d="M87.8115 43.8357C87.8115 44.0767 87.8832 44.3124 88.0174 44.5129C88.1516 44.7133 88.3423 44.8696 88.5655 44.9618C88.7887 45.0541 89.0342 45.0782 89.2711 45.0312C89.5081 44.9842 89.7257 44.8681 89.8965 44.6976C90.0673 44.5271 90.1836 44.3099 90.2308 44.0735C90.2779 43.837 90.2537 43.5919 90.1613 43.3692C90.0688 43.1464 89.9123 42.9561 89.7114 42.8221C89.5106 42.6882 89.2744 42.6167 89.0329 42.6167C88.8725 42.6167 88.7137 42.6482 88.5655 42.7095C88.4173 42.7707 88.2827 42.8605 88.1692 42.9737C88.0558 43.0869 87.9659 43.2213 87.9045 43.3692C87.8431 43.5171 87.8115 43.6756 87.8115 43.8357Z" fill="#213039"/>
<path d="M91.8688 56.9397C91.715 56.9273 91.5602 56.9464 91.4141 56.9959C91.2679 57.0454 91.1335 57.1243 91.0191 57.2277C90.9046 57.3311 90.8126 57.4567 90.7487 57.5969C90.6848 57.7371 90.6504 57.8889 90.6475 58.0429C90.6475 58.3664 90.7762 58.6766 91.0054 58.9053C91.2345 59.134 91.5453 59.2625 91.8694 59.2625C92.1935 59.2625 92.5043 59.134 92.7335 58.9053C92.9626 58.6766 93.0913 58.3664 93.0913 58.0429C93.0885 57.8889 93.054 57.7371 92.9901 57.5969C92.9262 57.4567 92.8342 57.3311 92.7197 57.2277C92.6053 57.1243 92.4709 57.0454 92.3247 56.9959C92.1786 56.9464 92.0226 56.9273 91.8688 56.9397Z" fill="#213039"/>
<path d="M95.1003 56.9402C94.9464 56.9278 94.7917 56.9469 94.6455 56.9964C94.4994 57.046 94.365 57.1248 94.2505 57.2282C94.1361 57.3316 94.0441 57.4572 93.9802 57.5974C93.9163 57.7376 93.8818 57.8894 93.8789 58.0434C93.8789 58.3669 94.0076 58.6771 94.2368 58.9058C94.466 59.1345 94.7768 59.263 95.1009 59.263C95.4249 59.263 95.7357 59.1345 95.9649 58.9058C96.1941 58.6771 96.3228 58.3669 96.3228 58.0434C96.3208 57.8892 96.2869 57.7369 96.2233 57.5963C96.1596 57.4557 96.0677 57.3297 95.953 57.2262C95.8384 57.1226 95.7036 57.0438 95.5571 56.9946C95.4106 56.9454 95.2555 56.9269 95.1015 56.9402H95.1003Z" fill="#213039"/>
<path d="M112.383 45.3522C112.539 45.3677 112.696 45.3501 112.845 45.3006C112.994 45.251 113.131 45.1706 113.246 45.0646C113.362 44.9587 113.453 44.8296 113.515 44.6857C113.577 44.5419 113.608 44.3866 113.605 44.2301C113.625 43.9859 113.57 43.7415 113.448 43.5287C113.327 43.316 113.143 43.1448 112.923 43.0375C112.702 42.9301 112.454 42.8917 112.211 42.9271C111.968 42.9625 111.742 43.0702 111.561 43.2361C111.38 43.4019 111.254 43.6182 111.198 43.8569C111.143 44.0955 111.16 44.3453 111.249 44.5738C111.338 44.8022 111.493 44.9987 111.696 45.1375C111.898 45.2764 112.137 45.3512 112.383 45.3522Z" fill="#213039"/>
<path d="M118.872 43.128C118.718 43.1155 118.563 43.1346 118.417 43.1842C118.271 43.2337 118.136 43.3126 118.022 43.4159C117.908 43.5193 117.816 43.645 117.752 43.7852C117.688 43.9254 117.653 44.0772 117.65 44.2312C117.65 44.5546 117.779 44.8648 118.008 45.0935C118.237 45.3222 118.548 45.4507 118.872 45.4507C119.196 45.4507 119.507 45.3222 119.736 45.0935C119.966 44.8648 120.094 44.5546 120.094 44.2312C120.091 44.0772 120.057 43.9254 119.993 43.7852C119.929 43.645 119.837 43.5193 119.723 43.4159C119.608 43.3126 119.474 43.2337 119.328 43.1842C119.182 43.1346 119.027 43.1155 118.873 43.128H118.872Z" fill="#213039"/>
<path d="M121.054 44.2313C121.03 44.4759 121.082 44.7219 121.201 44.9369C121.32 45.152 121.502 45.3261 121.722 45.4363C121.942 45.5466 122.19 45.5879 122.434 45.5549C122.678 45.5219 122.906 45.416 123.089 45.2512C123.271 45.0864 123.4 44.8703 123.457 44.6313C123.515 44.3924 123.499 44.1417 123.411 43.9121C123.323 43.6825 123.168 43.4848 122.965 43.3449C122.763 43.205 122.523 43.1294 122.276 43.1281C122.122 43.1154 121.968 43.1344 121.821 43.1839C121.675 43.2333 121.54 43.3122 121.426 43.4156C121.311 43.519 121.219 43.6447 121.155 43.785C121.091 43.9253 121.057 44.0772 121.054 44.2313Z" fill="#213039"/>
<path d="M129.506 53.4806H125.455V46.6641H123.525V53.4806H117.672V46.6641H115.741V53.4806H110.242V51.1183C110.242 48.3319 108.525 46.4657 105.965 46.4657C103.386 46.4657 101.688 48.326 101.688 51.1065V51.0699C101.688 52.7341 100.888 53.4783 99.3543 53.4783H97.3873V46.6618H95.3896V53.4783H90.1716V46.6618H87.0129C84.0187 46.6618 82.0423 48.4914 82.0423 51.0522C82.0355 51.6558 82.1554 52.2541 82.3944 52.8086C82.6334 53.3631 82.9862 53.8615 83.4299 54.2717C83.8737 54.6818 84.3986 54.9947 84.9709 55.19C85.5431 55.3854 86.1501 55.459 86.7525 55.406H99.2833C99.8938 55.4919 100.516 55.4045 101.079 55.1538C101.642 54.9031 102.123 54.4993 102.467 53.9886C102.882 54.4925 103.415 54.8859 104.02 55.1333C104.624 55.3807 105.281 55.4744 105.931 55.406H131.433V43.1218H129.502L129.506 53.4806ZM88.2236 53.4806H86.5916C86.2493 53.5134 85.904 53.4748 85.5774 53.3675C85.2509 53.2602 84.9502 53.0864 84.6943 52.8572C84.4385 52.6279 84.2331 52.3482 84.0911 52.0357C83.9492 51.7232 83.8737 51.3847 83.8696 51.0416C83.8705 50.6974 83.9438 50.3573 84.0846 50.0433C84.2255 49.7292 84.4309 49.4481 84.6874 49.2182C84.944 48.9883 85.246 48.8147 85.574 48.7087C85.902 48.6026 86.2487 48.5664 86.5916 48.6024H88.2283L88.2236 53.4806ZM108.287 53.4806H105.92C105.6 53.5097 105.277 53.4676 104.974 53.3573C104.672 53.247 104.398 53.0713 104.172 52.8428C103.945 52.6142 103.772 52.3386 103.666 52.0355C103.559 51.7325 103.52 51.4096 103.553 51.09C103.514 50.7558 103.546 50.4171 103.647 50.0961C103.748 49.775 103.916 49.4789 104.139 49.2268C104.362 48.9748 104.636 48.7726 104.943 48.6335C105.25 48.4944 105.583 48.4214 105.92 48.4194C106.257 48.4207 106.59 48.4933 106.897 48.6323C107.204 48.7713 107.478 48.9737 107.701 49.226C107.923 49.4783 108.09 49.7748 108.19 50.0961C108.29 50.4174 108.32 50.7561 108.279 51.09L108.287 53.4806Z" fill="#213039"/>
<path d="M135.87 43.1289H133.939V55.4272H135.87V43.1289Z" fill="#213039"/>
<path d="M142.479 46.6655C139.485 46.6655 137.509 48.4951 137.509 51.0559C137.502 51.6595 137.622 52.2578 137.861 52.8124C138.1 53.3669 138.453 53.8652 138.896 54.2754C139.34 54.6856 139.865 54.9984 140.437 55.1938C141.009 55.3891 141.616 55.4627 142.219 55.4097H143.691C143.643 56.4728 142.897 56.8058 141.858 56.8058C140.993 56.8005 140.133 56.6626 139.31 56.3972L139.7 58.4465C140.428 58.6481 141.181 58.7487 141.936 58.7453C144.411 58.7453 145.657 57.837 145.657 54.9101V46.6655H142.479ZM143.702 51.0004V53.4808H142.064C141.722 53.5136 141.376 53.475 141.05 53.3677C140.723 53.2604 140.422 53.0866 140.167 52.8574C139.911 52.6281 139.705 52.3484 139.563 52.0359C139.421 51.7234 139.346 51.3849 139.342 51.0418C139.343 50.6976 139.416 50.3575 139.557 50.0435C139.698 49.7294 139.903 49.4483 140.16 49.2184C140.416 48.9885 140.718 48.8149 141.046 48.7089C141.374 48.6028 141.721 48.5666 142.064 48.6026H143.702V51.0004Z" fill="#213039"/>
<path d="M101.235 31.3591C101.235 28.5846 99.9578 27.1577 97.1174 27.1577H95.767V29.0842H97.392C98.7305 29.0842 99.4146 29.7669 99.4146 31.176V33.9742H94.0498V35.9137H101.235V31.3591Z" fill="#213039"/>
<path d="M106.153 35.5664V27.1577H104.204V35.883C104.204 37.102 103.642 37.5047 102.823 37.5047C102.425 37.5047 102.096 37.474 101.6 37.4315L101.417 39.1147C101.818 39.2064 102.228 39.2515 102.64 39.2493C104.711 39.2493 106.153 38.4379 106.153 35.5664Z" fill="#213039"/>
<path d="M110.325 23.6211H108.395V35.9194H110.325V23.6211Z" fill="#213039"/>
<path d="M116.679 35.915H118.149C118.106 36.9781 117.36 37.3112 116.315 37.3112C115.448 37.3062 114.587 37.1684 113.761 36.9025L114.159 38.9518C114.749 39.1534 115.369 39.2544 115.992 39.2506C118.314 39.2506 119.939 38.4522 120.073 35.915H124.209C124.791 35.9856 125.382 35.8909 125.912 35.6419C126.443 35.3928 126.893 34.9995 127.209 34.5071C127.623 35.0119 128.157 35.4059 128.762 35.6534C129.366 35.9009 130.024 35.994 130.674 35.9245H140.919V23.6533H138.989V34.0192H134.965V31.6569C134.965 28.8705 133.248 27.0043 130.688 27.0043C128.11 27.0043 126.411 28.8339 126.411 31.6451V31.6085C126.411 33.2727 125.605 34.0476 124.071 34.0476H120.143V27.1578H116.984C113.99 27.1578 112.013 28.9875 112.013 31.5482C111.969 34.1232 113.868 35.915 116.679 35.915ZM128.286 31.573C128.247 31.2388 128.279 30.9 128.379 30.5788C128.48 30.2576 128.648 29.9612 128.871 29.7091C129.095 29.457 129.369 29.2549 129.676 29.1158C129.983 28.9768 130.316 28.9041 130.653 28.9024C130.99 28.9044 131.322 28.9775 131.628 29.1168C131.935 29.2561 132.208 29.4586 132.43 29.7109C132.652 29.9631 132.819 30.2595 132.918 30.5804C133.017 30.9014 133.047 31.2397 133.006 31.573V33.9755H130.639C130.318 34.0057 129.995 33.9643 129.692 33.8544C129.389 33.7445 129.115 33.5688 128.888 33.34C128.662 33.1113 128.489 32.8351 128.382 32.5316C128.276 32.228 128.238 31.9047 128.272 31.5849L128.286 31.573ZM113.789 31.573C113.789 31.2288 113.862 30.8884 114.003 30.5741C114.143 30.2597 114.349 29.9784 114.605 29.7484C114.862 29.5184 115.164 29.3449 115.493 29.239C115.821 29.1331 116.168 29.0973 116.511 29.1339H118.149V31.573V34.0535H116.53C116.187 34.0862 115.842 34.0477 115.516 33.9404C115.189 33.833 114.888 33.6593 114.632 33.43C114.377 33.2008 114.171 32.9211 114.029 32.6086C113.887 32.296 113.812 31.9575 113.808 31.6144L113.789 31.573Z" fill="#213039"/>
<path d="M145.358 23.6211H143.428V35.9194H145.358V23.6211Z" fill="#213039"/>
<path d="M39.6742 25.4409C39.8288 25.4572 39.9851 25.4408 40.1329 25.3927C40.2807 25.3445 40.4167 25.2659 40.5319 25.1618C40.6472 25.0577 40.7392 24.9305 40.8018 24.7885C40.8645 24.6465 40.8964 24.4929 40.8955 24.3377C40.8955 24.0143 40.7668 23.7041 40.5377 23.4754C40.3085 23.2467 39.9977 23.1182 39.6736 23.1182C39.3495 23.1182 39.0387 23.2467 38.8096 23.4754C38.5804 23.7041 38.4517 24.0143 38.4517 24.3377C38.4517 24.4926 38.4843 24.6457 38.5472 24.7873C38.6102 24.9288 38.7022 25.0557 38.8172 25.1596C38.9323 25.2635 39.0679 25.3423 39.2153 25.3907C39.3627 25.4392 39.5198 25.4563 39.6742 25.4409Z" fill="#213039"/>
<path d="M36.4496 25.4409C36.6042 25.4572 36.7605 25.4408 36.9083 25.3927C37.0561 25.3445 37.1921 25.2659 37.3073 25.1618C37.4226 25.0577 37.5145 24.9305 37.5772 24.7885C37.6398 24.6465 37.6718 24.4929 37.6709 24.3377C37.6709 24.0143 37.5422 23.7041 37.313 23.4754C37.0839 23.2467 36.7731 23.1182 36.449 23.1182C36.1249 23.1182 35.8141 23.2467 35.5849 23.4754C35.3558 23.7041 35.2271 24.0143 35.2271 24.3377C35.2273 24.4925 35.26 24.6456 35.323 24.7871C35.386 24.9285 35.478 25.0553 35.593 25.1592C35.708 25.2631 35.8435 25.3418 35.9909 25.3903C36.1382 25.4389 36.2952 25.4561 36.4496 25.4409Z" fill="#213039"/>
<path d="M37.3836 35.9137H47.9474V27.1577H46.0171V33.9742H40.7991V27.1577H37.6463C34.6521 27.1577 32.6757 28.9873 32.6757 31.5481C32.6676 32.1524 32.7865 32.7516 33.0248 33.3072C33.263 33.8628 33.6153 34.3623 34.0589 34.7737C34.5025 35.185 35.0275 35.499 35.6002 35.6953C36.1728 35.8917 36.7804 35.9661 37.3836 35.9137ZM34.5125 31.5434C34.5134 31.1993 34.5866 30.8592 34.7275 30.5451C34.8684 30.231 35.0737 29.95 35.3303 29.7201C35.5869 29.4902 35.8889 29.3166 36.2169 29.2105C36.5449 29.1044 36.8916 29.0682 37.2345 29.1043H38.8712V33.9825H37.2297C36.8879 34.0152 36.5429 33.9768 36.2167 33.8698C35.8904 33.7627 35.59 33.5894 35.3342 33.3606C35.0784 33.1319 34.873 32.8528 34.7307 32.5408C34.5885 32.2288 34.5125 31.8908 34.5077 31.5481L34.5125 31.5434Z" fill="#213039"/>
<path d="M65.1767 24.4334C65.32 24.448 65.4647 24.4323 65.6015 24.3874C65.7382 24.3425 65.864 24.2694 65.9706 24.1728C66.0772 24.0762 66.1623 23.9583 66.2202 23.8268C66.2782 23.6952 66.3077 23.553 66.307 23.4093C66.3292 23.1814 66.2818 22.9521 66.1709 22.7516C66.0601 22.5512 65.891 22.3889 65.686 22.2861C65.481 22.1834 65.2496 22.145 65.0223 22.176C64.7949 22.207 64.5824 22.306 64.4125 22.4599C64.2426 22.6138 64.1234 22.8154 64.0706 23.0383C64.0177 23.2611 64.0337 23.4947 64.1164 23.7082C64.1992 23.9218 64.3447 24.1054 64.534 24.2348C64.7232 24.3643 64.9473 24.4335 65.1767 24.4334Z" fill="#213039"/>
<path d="M63.618 26.8658C63.8656 26.8464 64.099 26.7426 64.279 26.5717C64.4589 26.4009 64.5745 26.1734 64.6062 25.9275C64.638 25.6817 64.584 25.4324 64.4533 25.2216C64.3226 25.0108 64.1233 24.8513 63.8887 24.7699C63.6541 24.6884 63.3986 24.6901 63.165 24.7745C62.9315 24.8589 62.7342 25.0209 62.6062 25.2334C62.4783 25.4459 62.4275 25.6958 62.4624 25.9412C62.4973 26.1867 62.6157 26.4126 62.7979 26.5812C62.9072 26.6829 63.0367 26.7607 63.1779 26.8097C63.3191 26.8588 63.469 26.8779 63.618 26.8658Z" fill="#213039"/>
<path d="M65.5797 25.7891C65.558 26.024 65.6079 26.2599 65.7229 26.466C65.8378 26.6721 66.0125 26.8387 66.224 26.944C66.4355 27.0493 66.6739 27.0884 66.9081 27.0561C67.1422 27.0238 67.3611 26.9217 67.5361 26.7631C67.711 26.6045 67.8339 26.3969 67.8886 26.1674C67.9432 25.9379 67.9272 25.6973 67.8425 25.4771C67.7578 25.2569 67.6084 25.0673 67.4139 24.9333C67.2194 24.7993 66.9889 24.7271 66.7525 24.7261C66.6042 24.7126 66.4547 24.7301 66.3135 24.7774C66.1723 24.8246 66.0424 24.9006 65.9322 25.0005C65.8219 25.1005 65.7337 25.2222 65.673 25.3579C65.6123 25.4936 65.5805 25.6405 65.5797 25.7891Z" fill="#213039"/>
<path d="M85.1313 23.6533H83.201V34.0192H79.4139V27.159H77.4836V33.9755H72.2656V27.159H70.3353V33.9755H66.2784V28.378H64.3351V33.9755H60.8166V28.378H58.8863V33.9755H53.9074V26.9759H51.9641V35.8843C51.9641 37.1033 51.4019 37.506 50.583 37.506C50.1853 37.506 49.8504 37.4753 49.3616 37.4328L49.1841 39.116C49.5846 39.2077 49.9945 39.2529 50.4054 39.2506C52.3783 39.2506 53.821 38.4947 53.9121 35.915H85.1562L85.1313 23.6533Z" fill="#213039"/>
<path d="M89.566 23.6211H87.6357V35.9194H89.566V23.6211Z" fill="#213039"/>
<path d="M43.599 38.5412C43.599 38.3001 43.5273 38.0645 43.3931 37.864C43.2589 37.6635 43.0682 37.5073 42.845 37.415C42.6218 37.3228 42.3763 37.2987 42.1393 37.3457C41.9024 37.3927 41.6848 37.5088 41.514 37.6793C41.3432 37.8498 41.2268 38.067 41.1797 38.3034C41.1326 38.5399 41.1568 38.785 41.2492 39.0077C41.3417 39.2304 41.4982 39.4208 41.6991 39.5548C41.8999 39.6887 42.1361 39.7602 42.3776 39.7602C42.538 39.7602 42.6968 39.7287 42.845 39.6674C42.9932 39.6061 43.1278 39.5164 43.2412 39.4032C43.3547 39.29 43.4446 39.1556 43.506 39.0077C43.5674 38.8598 43.599 38.7013 43.599 38.5412Z" fill="#213039"/>
<path d="M46.8304 38.5412C46.8304 38.3001 46.7588 38.0645 46.6246 37.864C46.4904 37.6635 46.2996 37.5073 46.0764 37.415C45.8533 37.3228 45.6077 37.2987 45.3708 37.3457C45.1339 37.3927 44.9162 37.5088 44.7454 37.6793C44.5746 37.8498 44.4583 38.067 44.4112 38.3034C44.364 38.5399 44.3882 38.785 44.4807 39.0077C44.5731 39.2304 44.7296 39.4208 44.9305 39.5548C45.1313 39.6887 45.3675 39.7602 45.609 39.7602C45.7694 39.7602 45.9283 39.7287 46.0764 39.6674C46.2246 39.6061 46.3593 39.5164 46.4727 39.4032C46.5861 39.29 46.6761 39.1556 46.7374 39.0077C46.7988 38.8598 46.8304 38.7013 46.8304 38.5412Z" fill="#213039"/>
<path d="M74.848 37.4524C74.6943 37.4409 74.5399 37.4606 74.3941 37.5105C74.2484 37.5603 74.1143 37.6392 74 37.7424C73.8858 37.8456 73.7938 37.9709 73.7296 38.1107C73.6654 38.2505 73.6303 38.4019 73.6266 38.5557C73.6032 38.8003 73.6545 39.0463 73.7737 39.2614C73.8929 39.4765 74.0745 39.6506 74.2946 39.7608C74.5147 39.8711 74.7631 39.9124 75.0071 39.8792C75.2511 39.8461 75.4794 39.7401 75.662 39.5752C75.8446 39.4102 75.973 39.1941 76.0303 38.955C76.0876 38.716 76.0711 38.4652 75.9831 38.2357C75.8951 38.0061 75.7396 37.8085 75.537 37.6687C75.3344 37.5289 75.0942 37.4535 74.848 37.4524Z" fill="#213039"/>
<path d="M196.946 20.4202C197.35 20.4745 197.752 20.5477 198.168 20.6151C200.019 17.2111 202.177 13.983 204.617 10.9708C198.469 6.19426 191.559 2.48474 184.178 -0.00219727L196.946 20.4202ZM229.943 46.3149L208.896 39.5043L233.612 78.9978C235.07 67.9666 233.805 56.747 229.928 46.3149H229.943Z" fill="#213039"/>
<path d="M195.43 31.1048C204.543 16.5434 216.429 5.91528 233.615 0.00708008L208.89 39.5077L184.164 79.0035C181.952 60.9825 186.315 45.6663 195.43 31.1048Z" fill="#213039"/>
<path d="M159.784 23.5743L186.086 32.1106C188.875 30.5705 191.74 29.1722 194.67 27.921C195.049 26.9942 195.456 26.0674 195.891 25.1405C196.601 23.5861 197.375 22.0919 198.176 20.6167C185.329 18.4549 172.147 19.4704 159.784 23.5743ZM231.7 32.1106L208.893 39.5071L258.002 55.4339C251.094 45.7895 242.106 37.8152 231.7 32.0988V32.1106Z" fill="#213039"/>
<path d="M159.784 55.4226L187.852 46.3193C188.869 43.5767 190.044 40.8949 191.37 38.2874C192.187 34.7485 193.29 31.2818 194.67 27.9214C180.7 33.6641 168.617 43.1895 159.784 55.4226ZM220.837 20.4222L208.893 39.5075L258.002 23.5866C246.041 19.6073 233.304 18.5227 220.84 20.4222H220.837Z" fill="#213039"/>
</g>
<defs>
<clipPath id="clip0_1_9438">
<rect width="258" height="79" fill="white"/>
</clipPath>
</defs>
</svg>
