<svg id="category" xmlns="http://www.w3.org/2000/svg" width="27.983" height="27.983" viewBox="0 0 27.983 27.983">
  <path id="Path_18" data-name="Path 18" d="M24.7,15.085h-6.34a3.283,3.283,0,0,0-3.279,3.279V24.7a3.283,3.283,0,0,0,3.279,3.279H24.7A3.283,3.283,0,0,0,27.983,24.7v-6.34A3.283,3.283,0,0,0,24.7,15.085ZM25.8,24.7A1.094,1.094,0,0,1,24.7,25.8h-6.34A1.094,1.094,0,0,1,17.271,24.7v-6.34a1.094,1.094,0,0,1,1.093-1.093H24.7A1.094,1.094,0,0,1,25.8,18.364ZM9.619,15.085H3.279A3.283,3.283,0,0,0,0,18.364V24.7a3.283,3.283,0,0,0,3.279,3.279h6.34A3.283,3.283,0,0,0,12.9,24.7v-6.34A3.283,3.283,0,0,0,9.619,15.085ZM10.712,24.7A1.094,1.094,0,0,1,9.619,25.8H3.279A1.094,1.094,0,0,1,2.186,24.7v-6.34a1.094,1.094,0,0,1,1.093-1.093h6.34a1.094,1.094,0,0,1,1.093,1.093ZM9.619,0H3.279A3.283,3.283,0,0,0,0,3.279v6.34A3.283,3.283,0,0,0,3.279,12.9h6.34A3.283,3.283,0,0,0,12.9,9.619V3.279A3.283,3.283,0,0,0,9.619,0Zm1.093,9.619a1.094,1.094,0,0,1-1.093,1.093H3.279A1.094,1.094,0,0,1,2.186,9.619V3.279A1.094,1.094,0,0,1,3.279,2.186h6.34a1.094,1.094,0,0,1,1.093,1.093ZM24.7,0h-6.34a3.283,3.283,0,0,0-3.279,3.279v6.34A3.283,3.283,0,0,0,18.364,12.9H24.7a3.283,3.283,0,0,0,3.279-3.279V3.279A3.283,3.283,0,0,0,24.7,0ZM25.8,9.619A1.094,1.094,0,0,1,24.7,10.712h-6.34a1.094,1.094,0,0,1-1.093-1.093V3.279a1.094,1.094,0,0,1,1.093-1.093H24.7A1.094,1.094,0,0,1,25.8,3.279Z" fill="#284A6F"/>
</svg>
