<svg xmlns="http://www.w3.org/2000/svg" width="771.984" height="444.919" viewBox="0 0 771.984 444.919">
  <defs>
    <style>
      .cls-1 {
        fill: #284A6F;
      }

      .cls-2 {
        fill: #284A6F;
      }

      .cls-3 {
        fill: #284A6F;
      }

      .cls-4 {
        fill: #284A6F;
      }

      .cls-5 {
        fill: #ccf7ff;
      }

      .cls-6 {
        fill: #300b39;
      }

      .cls-7 {
        fill: #fdab74;
      }

      .cls-8 {
        fill: #39608d;
      }

      .cls-9 {
        fill: #f68f53;
      }

      .cls-10 {
        fill: #303876;
      }

      .cls-11 {
        fill: #fff;
      }

      .cls-12 {
        fill: #ccf7ff;
      }

      .cls-13 {
        fill: #1e90a4;
      }

      .cls-14 {
        fill: #ffc4e7;
      }

      .cls-15 {
        fill: #0d3563;
      }

      .cls-16 {
        fill: #fd9a5d;
      }

      .cls-17 {
        fill: #c74f97;
      }
    </style>
  </defs>
  <g id="Group_807" data-name="Group 807" transform="translate(-4265.193 -294.13)">
    <path id="Path_5695" data-name="Path 5695" class="cls-1" d="M5162.618,362.138c-1.9-47.088,37.565-68.008,77.92-68.008s84.272,10.456,88.078,73.07c2.448,40.281-19.026,65.067-80.859,65.067-20.853,0-37.061-3.289-49.474-9.155l-30.909,27.465,15.189-37.963C5169.108,400.1,5163.439,382.458,5162.618,362.138Z" transform="translate(-627.76)"/>
    <g id="Group_796" data-name="Group 796" transform="translate(4653.39 414.266)">
      <path id="Path_5696" data-name="Path 5696" class="cls-2" d="M6133.95,1016.485l15.158,180.237s1.588,10.925-6.538,10.945c-13.362.032-66.508,0-66.508,0s10.057-2.274,9.936-7.391c-.144-6.032-17.718-185.5-17.718-185.5Z" transform="translate(-5914.764 -918.406)"/>
      <path id="Path_5697" data-name="Path 5697" class="cls-3" d="M6061.466,1196.783c2.628.008,53.389.167,66.4,0,5.671-.07,6.665-5.042,6.712-8.26a16.174,16.174,0,0,0-.172-2.683l-.395-4.685-1-11.94-.887-10.549-1.141-13.556-.96-11.441L6119.25,1005.6l-65.67-1.7s7.4,75.1,12.636,129.775c.585,6.091,1.141,11.932,1.655,17.384q.25,2.611.483,5.1c.485,5.172.929,9.922,1.315,14.116.2,2.21.392,4.264.561,6.146.669,7.373,1.06,12.081,1.065,12.976a7.6,7.6,0,0,1-.128,1.459C6070.088,1196.595,6062.453,1196.783,6061.466,1196.783Z" transform="translate(-5904.48 -910.792)"/>
      <path id="Path_5698" data-name="Path 5698" class="cls-4" d="M5935.974,694,5899.05,842.316,5894,862.628l-17.2,69.08H5557.3L5620.689,694Z" transform="translate(-5557.304 -694.003)"/>
      <path id="Path_5699" data-name="Path 5699" class="cls-4" d="M6679.914,694l5.117,1.706-57.49,241.159-6.8-5.159Z" transform="translate(-6301.244 -694.002)"/>
      <path id="Path_5700" data-name="Path 5700" class="cls-2" d="M5883.6,1490.365H5566.076l-8.768-5.159H5876.8Z" transform="translate(-5557.307 -1247.5)"/>
      <rect id="Rectangle_284" data-name="Rectangle 284" class="cls-2" width="68.749" height="3.267" transform="translate(146.041 286.063)"/>
      <path id="Path_5701" data-name="Path 5701" class="cls-4" d="M6101.573,1502.374l.354,2.5,64.655,13.062-.887-10.549-.422-5.011Z" transform="translate(-5938.055 -1259.51)"/>
      <path id="Path_5702" data-name="Path 5702" class="cls-4" d="M6079.83,1598.5c2.628.008,53.389.167,66.4,0,5.671-.07,6.665-5.042,6.712-8.26l-64.351-12.107c.669,7.373,1.06,12.081,1.065,12.976a7.6,7.6,0,0,1-.128,1.459C6088.453,1598.31,6080.817,1598.5,6079.83,1598.5Z" transform="translate(-5922.844 -1312.507)"/>
      <path id="Path_5703" data-name="Path 5703" class="cls-3" d="M6153.587,1276.231l140.349,48.121,17.2-69.081Z" transform="translate(-5974.442 -1086.646)"/>
      <path id="Path_5704" data-name="Path 5704" class="cls-5" d="M5964.452,694H5649.168l-51.155,191.04H5916.97Z" transform="translate(-5585.782 -694.002)"/>
    </g>
    <g id="Group_799" data-name="Group 799" transform="translate(4622.026 301.633)">
      <path id="Path_5705" data-name="Path 5705" class="cls-6" d="M6343.583,330.507c.642-1.511,8.146-17.565,33.622-8.8,0,0-12.929-3.259-17.146,1.359,0,0,10.99-3.494,17.02,1.291s5.458,18.339,3.987,22.305-10.156,15.246-14.922,14.663a14.211,14.211,0,0,1-5.272-2.011,63.566,63.566,0,0,1,1.069,7.322c2.15,24.437-15.9,40.606-23.545,35.131-4.9-3.511-10,5.195-10,5.195l-36.527-63.107S6326.7,311.067,6343.583,330.507Z" transform="translate(-6039.814 -319.102)"/>
      <path id="Path_5706" data-name="Path 5706" class="cls-7" d="M6230.154,671.122c34.6,15.462,60.6-39.114,58.345-39.673-3.458-3.913-7.025-17.853-4.491-37.919l-1.794.123-30.085,2.228s-.468,9.334-1.506,18.039c-.687,5.724-1.628,11.179-2.849,13.559-.361.7-6.879,1.646-6.9,1.661C6240.371,629.694,6220.925,667,6230.154,671.122Z" transform="translate(-5994.906 -511.082)"/>
      <g id="Group_797" data-name="Group 797" transform="translate(43.381 121.552)">
        <path id="Path_5707" data-name="Path 5707" class="cls-7" d="M5604.37,732.723l-7.065,9.807s3.088,2.659,8.015,6.88c1.49,1.255,2.389,1.934,2.389,1.934,3.98,3.343,8.875,7.229,14.192,11.485l.061.075c9.279,7.14,19.841,15,29.435,21.07.868.538,1.727,1.064,2.569,1.57a87.35,87.35,0,0,0,15.558,7.676,11.384,11.384,0,0,0,1.509.423c12.72,3.421,38.389-1.037,63.569-8.723,3.478-1.053,6.905-2.179,10.253-3.252A248.807,248.807,0,0,0,5778.315,768a98.175,98.175,0,0,0,14.371-8.447,39.75,39.75,0,0,0,3.668-2.849c20.44-16.738,10.827-32.986,6.944-33.01-4.85-.059-11.654,1.223-19.519,3.237-12.4,3.344-27.67,8.655-42.639,14.188-8.228,3.01-16.395,6.095-24.062,8.776-4.587,1.712-8.961,3.252-12.994,4.64-7.734,2.611-14.153,4.522-18.626,5.212-2.906.468-8.3-.557-14.912-2.363-1.755-.472-3.606-1.012-5.527-1.588-10.66-3.236-23.457-7.979-34.574-12.4-5.474-2.136-10.565-4.232-14.784-5.977C5608.836,734.621,5604.37,732.723,5604.37,732.723Z" transform="translate(-5597.305 -723.689)"/>
      </g>
      <path id="Path_5708" data-name="Path 5708" class="cls-8" d="M6042.784,774.083a49.77,49.77,0,0,0,14.841,7.664c-2.49,9.127-4.539,17.3-5.543,22.809-1.595,8.736-3.124,23.639-4.44,39.429-.381,4.562-.742,9.2-1.085,13.778-1.145,15.3-2.053,30.015-2.6,39.4h151.568c-2.821-22.129-6.644-47.069-9.541-70.573-1.437-11.676-2.647-22.984-3.4-33.427a209.588,209.588,0,0,0-3.068-24.21c-.01-.056-.02-.109-.029-.165a143.966,143.966,0,0,0-4.036-16.2.013.013,0,0,0,0-.01c-7.62-24.227-18.975-34.1-25.565-37.956a25.934,25.934,0,0,0-3.842-1.871,12.084,12.084,0,0,0-1.418-.457c-8.1,15.731-28.253,23.53-39.961,26.855-4.993,1.414-8.453,2.016-8.789,2.075-.01,0-.017,0-.026,0s0-.049,0-.145c0-.049,0-.108-.007-.178-.27-9,1.678-19.629,2.852-25.128.494-2.312.853-3.72.853-3.72h0c-.736.089-1.746.224-2.937.391-6.391.9-18.074,2.792-21.84,4.174-5.275,1.937-49.125,21.931-49.125,21.931v0C6025.619,738.916,6024.836,760.351,6042.784,774.083Z" transform="translate(-5853.561 -594)"/>
      <path id="Path_5709" data-name="Path 5709" class="cls-9" d="M6305.557,596.188s-.462,9.327-1.506,18.039c16.5,1.546,27.018-12.388,31.594-20.265Z" transform="translate(-6048.338 -511.384)"/>
      <path id="Path_5710" data-name="Path 5710" class="cls-7" d="M6268.021,476.721s38.815,5.4,41.8-18.829,10.01-39.842-14.646-44.312-30.621,4.179-33.585,12.022S6258,474.693,6268.021,476.721Z" transform="translate(-6017.299 -384.341)"/>
      <path id="Path_5711" data-name="Path 5711" class="cls-6" d="M6260.854,401.918c6.9-6.553,11.25-4.4,13.528-1.9,22.688-9.089,34.274,9.865,34.274,9.865a46.624,46.624,0,0,0,11.8,29.192s-7.625,3.512-23.454-2.688c-4.835-1.894-8.859-5.987-12.121-10.754a91.406,91.406,0,0,0,13.284,20.983c-18.418-11.41-22.939-39.52-23.369-42.486-2.635,1.842-7.882,5.9-9.863,10.267-2.693,5.932-5.118,18.526-8.767,17.642C6256.163,432.045,6250.5,411.745,6260.854,401.918Z" transform="translate(-6013.756 -373.985)"/>
      <path id="Path_5712" data-name="Path 5712" class="cls-7" d="M5511.636,700.875a37.379,37.379,0,0,1-5.363-5.964c-1.977-2.966-2.768-5.932-6.525-8.5s-7.909-9.293-8.5-8.107,1.977,8.5,1.78,9.293-10.678,3.056-14.632,1.923-13.84-4.3-13.644-2.319,10.678,13.05,14.04,15.027,13.445,1.384,17.4,2.768,8.383,5.686,8.383,5.686Z" transform="translate(-5461.19 -570.288)"/>
      <path id="Path_5713" data-name="Path 5713" class="cls-7" d="M5500.143,703.43s-10.282-8.3-14.764-7.25l7.382,7.25Z" transform="translate(-5475.624 -582.828)"/>
      <path id="Path_5714" data-name="Path 5714" class="cls-7" d="M5468.465,724.112,5452.91,713.7a9.7,9.7,0,0,1,6.031,0C5462.1,714.786,5468.465,724.112,5468.465,724.112Z" transform="translate(-5452.91 -594.809)"/>
      <path id="Path_5715" data-name="Path 5715" class="cls-10" d="M6342.607,1019.976c.664-.372,57.668-13.156,65.127-61.527-1.439-11.674-2.65-22.984-3.4-33.424a210.186,210.186,0,0,0-3.1-24.376c-7.1-1.1-15.62,6.541-19.44,17.883C6373.93,941.88,6342.813,1019,6342.607,1019.976Z" transform="translate(-6075.31 -725.858)"/>
      <g id="Group_798" data-name="Group 798" transform="translate(194.784 144.556)">
        <path id="Path_5716" data-name="Path 5716" class="cls-7" d="M6101.452,907.832l-.2,12.24s60.891,33.25,72.723,29.374c16.062-5.262,33.858-31.578,41.144-56.876,1.014-3.489,1.938-6.977,2.865-10.368a248.761,248.761,0,0,0,6.784-35.5,98.207,98.207,0,0,0,.755-16.652,39.641,39.641,0,0,0-.389-4.629c-2.885-26.26-21.747-27.062-23.885-23.821-2.694,4.034-5.329,10.436-7.929,18.127-3.958,12.217-7.833,27.915-11.357,43.479-1.963,8.538-3.83,17.066-5.763,24.955-1.066,4.778-7.1,28.4-8.958,32.526C6166.046,923.375,6101.452,907.832,6101.452,907.832Z" transform="translate(-6101.248 -800.257)"/>
      </g>
      <path id="Path_5717" data-name="Path 5717" class="cls-8" d="M6378.122,775.816s18.343,8.908,24.745,21.1,8.452,50.571-8.651,97.6c0,0-23.963,2.179-43.5-23.728C6350.715,870.8,6357.971,768.5,6378.122,775.816Z" transform="translate(-6080.982 -638.341)"/>
      <path id="Path_5718" data-name="Path 5718" class="cls-10" d="M6306.678,686.208s6.69,4.161,6.7,10.333c0,0-7.9,21.59-54.036,26.6C6259.346,723.144,6301.808,702.261,6306.678,686.208Z" transform="translate(-6017.064 -575.916)"/>
      <path id="Path_5719" data-name="Path 5719" class="cls-10" d="M6270.211,691.345s-11.639,21.382-11.307,31.8c0,0-.791-23.672.858-29.169s11.463-7.767,11.463-7.767Z" transform="translate(-6016.623 -575.916)"/>
      <path id="Path_5720" data-name="Path 5720" class="cls-11" d="M6293.333,577.563c-.4,0-4.086,3.3-8.964,2.373s-4.831-4.746-4.831-4.746a21.811,21.811,0,0,1,6.255,0A51.2,51.2,0,0,1,6293.333,577.563Z" transform="translate(-6031.189 -498.088)"/>
      <path id="Path_5721" data-name="Path 5721" class="cls-7" d="M6001.622,1142.846s-8.58-13.062-15.5-13.319-19.722-3.842-18.7-1.281,8.964,2.817,9.733,4.354-11.782,3.842-15.368,4.1-12.038,0-11.782,1.793,15.234,9.221,25.8,8.2,23.631,3.073,23.631,3.073Z" transform="translate(-5800.66 -884.509)"/>
    </g>
    <g id="Group_800" data-name="Group 800" transform="translate(4559.018 315.779)">
      <path id="Path_5722" data-name="Path 5722" class="cls-4" d="M5446.642,635.383c6.97-.643,12.774-2.8,17.253-6.414a21.982,21.982,0,0,0,7.7-11.844c1.8-7.255-.6-14.477-5.967-17.972-6.751-4.4-16.653-2.253-27.166,5.886-22.342,17.3-51.3,17.117-70.081,9.265-13.867-5.8-22.6-15.578-23.957-26.839-.814-6.751,1.125-13.174,5.765-19.089q1.082-1.38,2.344-2.7a91.024,91.024,0,0,0,26.868,9.735c12.447,2.182,21.367.026,24.473-5.918,4.831-9.247,2.795-14.357.236-17.016-3.058-3.177-8.682-4.723-15.836-4.349a58.783,58.783,0,0,0-21.506,5.728,52.565,52.565,0,0,0-14.532,9.908,104.512,104.512,0,0,1-16.109-10.99c-10.9-9.072-24.5-24.423-27.418-46.034-1.29-9.547,1.907-18.246,9.773-26.6,6.85-7.27,15.973-13,24.023-18.065,10.607-6.667,18.985-11.933,16.714-17.736-1.661-4.245-5.412-6.991-10.844-7.941a27.6,27.6,0,0,0-5.635-.356c2.216-6.473,2.494-11.789,1.176-16.458a13.209,13.209,0,0,0,3.7-8.485c.289-10.406-2.509-18.432-8.317-23.855a27.012,27.012,0,0,0-7.128-4.719c-5.295-6.628-15.113-11.7-28.329-14.433-21.422-4.424-48.9-1.381-57.811,11.368-4.278,6.124-3.723,13.905,1.606,22.5q1.127,1.82,2.375,3.541a18.585,18.585,0,0,0,1.081,12.334c2.315,5.388,7,10.656,13.94,15.66q1.555,1.122,3.111,2.1c1.266,5.116,3.331,9.212,5.948,11.657,5.876,5.489,18.1,8.71,30.546,8.71a64.758,64.758,0,0,0,14.82-1.646c14.6-3.468,20.412-10.9,22.707-16.712a26.406,26.406,0,0,1,5.939.305c4.945.864,8.2,3.214,9.677,6.986,1.807,4.617-6.1,9.585-16.1,15.874-15.847,9.961-37.551,23.6-34.5,46.169,2.987,22.1,16.853,37.762,27.959,47.01a105.877,105.877,0,0,0,15.985,10.949c-6.249,6.7-9.214,14.6-8.23,22.743,1.427,11.825,10.5,22.058,24.89,28.074a73.231,73.231,0,0,0,35.328,4.829,71.31,71.31,0,0,0,36.288-14.3c9.963-7.714,19.216-9.832,25.385-5.813,4.817,3.138,6.952,9.694,5.313,16.314a20.459,20.459,0,0,1-7.171,11.017c-4.239,3.42-9.767,5.465-16.43,6.08ZM5390.3,549.61c5.581,0,10.161,1.295,12.7,3.935,3.168,3.291,3,8.56-.491,15.237-2.734,5.233-11.274,7.146-22.845,5.117a89.154,89.154,0,0,1-26-9.356,51.824,51.824,0,0,1,13.763-9.3A55.466,55.466,0,0,1,5390.3,549.61Zm-49.853-111.857c-2.348,5.347-7.975,11.9-21.339,15.077a66.723,66.723,0,0,1-25.246.78c-8.2-1.3-15.023-4.023-18.715-7.472-2.247-2.1-3.97-5.4-5.126-9.411,7.158,4.087,14.292,5.839,21.292,5.226a46.018,46.018,0,0,0,6.065,1.5c2.876,1.807,4.944,2.869,5.22,3.009l.138.054a42.467,42.467,0,0,0,9.171,1.409,14.13,14.13,0,0,0,12.107,2.453c6.582-1.677,10.976-6.028,12.288-11.947A37.868,37.868,0,0,1,5340.446,437.753Zm-5.818,1.088c-1.358,5-5.2,8.575-11,10.05a12.23,12.23,0,0,1-8.82-1c3.393-.232,6.722-1.176,8.814-3.566C5325.344,442.357,5329.6,440.178,5334.628,438.84Zm.356-1.694q-.849.207-1.7.452c-4.878,1.409-8.921,3.543-10.816,5.708-2.214,2.531-6.23,3.166-10.032,3.087a21.829,21.829,0,0,1-2.944-2.694,33,33,0,0,0,16.352-7.1,28.4,28.4,0,0,0,7.75-9.756,20.915,20.915,0,0,1,1.577,7.883A17.12,17.12,0,0,1,5334.984,437.147Zm-27.356,6.77a26.348,26.348,0,0,0,2.208,2.318,43.537,43.537,0,0,1-6.61-1.177c-.217-.113-.945-.5-2.026-1.116A38.069,38.069,0,0,0,5307.628,443.917Zm-1.159-1.455a37.7,37.7,0,0,1-8.483-.464q-.7-.446-1.462-.949a34.585,34.585,0,0,0,7.2-2.8c.567,1,1.161,1.958,1.777,2.861Q5305.979,441.811,5306.469,442.462Zm25.079-15.048a27.3,27.3,0,0,1-6.678,8,31.577,31.577,0,0,1-16.575,6.892c-.549-.683-1.057-1.376-1.523-2.059-.588-.862-1.155-1.776-1.7-2.731a44.208,44.208,0,0,0,8.147-6.057,72.082,72.082,0,0,0,12.589-2.183A57.891,57.891,0,0,0,5331.548,427.415Zm-63,1.265a59.114,59.114,0,0,0,14.4,9.8q2.246,1.144,4.475,2.055c-5.428-.214-11.432-1.928-17.94-5.913A46.8,46.8,0,0,1,5268.548,428.68Zm24.124,11.6q-.56.077-1.127.135a54.527,54.527,0,0,1-7.9-3.3c-6.66-3.393-11.78-7.018-15.268-10.808-.071-1.411-.09-2.853-.056-4.307a67.263,67.263,0,0,0,11.159,5.188C5282.9,432.438,5288.082,436.944,5292.672,440.277ZM5303,436.913a32.455,32.455,0,0,1-8.167,2.983c-1.09-.761-2.227-1.6-3.375-2.493a52.252,52.252,0,0,1-9.473-9.37q1.31.419,2.651.793a80.356,80.356,0,0,0,15.936,2.722A52.822,52.822,0,0,0,5303,436.913Zm38.081-.768a38.489,38.489,0,0,0-4.5.645,18.61,18.61,0,0,0,.13-2.05,22.558,22.558,0,0,0-1.819-8.76,30.819,30.819,0,0,0,7.772-5.116C5343.667,425.208,5343.219,430.146,5341.077,436.145Zm-30.357-4.514a41.94,41.94,0,0,1-6.376,4.543c-.75-1.434-1.448-2.951-2.083-4.527A81.894,81.894,0,0,0,5310.72,431.631Zm-43.863-4.717q.075,1.188.2,2.363c.152,1.449.361,2.85.622,4.193-.577-.385-1.155-.787-1.741-1.209-6.706-4.838-11.224-9.892-13.427-15.02a17.288,17.288,0,0,1-1.279-10.111,58.764,58.764,0,0,0,10.606,10.516,18.63,18.63,0,0,0,3.3,7.139Q5265.919,425.857,5266.856,426.913Zm45.7,3.056a80.228,80.228,0,0,1-10.9.107,58.333,58.333,0,0,1-2.675-9.881q1.225.326,2.595.586a53.659,53.659,0,0,0,18.9-.3,58.768,58.768,0,0,1-5.527,7.056C5314.222,428.326,5313.423,429.145,5312.557,429.97Zm-15.221-10.258c.014.082.027.164.042.247a59.857,59.857,0,0,0,2.6,10,78.662,78.662,0,0,1-14.934-2.618c-1.444-.4-2.96-.875-4.528-1.427a21.429,21.429,0,0,1-3-7.114c-.941-4.638.235-9.137,3.5-13.39a25.376,25.376,0,0,1,3.005,3.747C5286.615,412.818,5289.754,417.241,5297.336,419.711Zm35.205,5.627a53.021,53.021,0,0,1-7.131,2.451,69.663,69.663,0,0,1-10.432,1.95q.556-.57,1.1-1.164a61.4,61.4,0,0,0,6.538-8.529q1.461-.323,2.892-.716,1.332-.366,2.578-.776a24.565,24.565,0,0,1,2.353,2.7,10.534,10.534,0,0,1-6.57,2.266l-.1,1.534a12.1,12.1,0,0,0,7.555-2.541,24.729,24.729,0,0,1,1.389,2.392C5332.659,425.049,5332.6,425.194,5332.541,425.338Zm-52.73-20.884c-3.559,4.626-4.838,9.552-3.8,14.658a21.8,21.8,0,0,0,2.209,5.95,65.555,65.555,0,0,1-9.833-4.821,57.723,57.723,0,0,1,2.873-15.374q.174-.511.37-1.05a11.974,11.974,0,0,1,3.032-.562A8.19,8.19,0,0,1,5279.811,404.454Zm62.368,14.679a28.184,28.184,0,0,1-7.612,5.271,16.933,16.933,0,0,0,.861-6.974,19.408,19.408,0,0,0,1.116-2.761,20.223,20.223,0,0,0,2.327-1.746A21.928,21.928,0,0,1,5342.179,419.133Zm-75.4,1.936q-.062,1.656-.03,3.306-.188-.247-.368-.493a18.506,18.506,0,0,1-2.55-4.766Q5265.276,420.13,5266.784,421.069Zm67.124-1.173a16.386,16.386,0,0,1-.535,3.025q-.415-.716-.882-1.414.391-.38.771-.815Q5333.6,420.307,5333.908,419.9Zm-.068-2.766a13.441,13.441,0,0,1-1.713,2.525c-.177.2-.358.4-.539.583a26.188,26.188,0,0,0-1.9-2.238,40.036,40.036,0,0,0,4.008-1.714Q5333.782,416.7,5333.84,417.129Zm-12.214,1.571a52.735,52.735,0,0,1-19.766.571c-1.131-.213-2.178-.463-3.151-.744-.713-4.887-.627-9.145.208-12.14a159.559,159.559,0,0,0,18.564,6.053,24.061,24.061,0,0,1,6.219,2.674Q5322.722,416.936,5321.625,418.7Zm-51.9-14.093a58.908,58.908,0,0,0-2.85,14.695q-1.824-1.17-3.63-2.519a11.3,11.3,0,0,1,.088-4.146A12.107,12.107,0,0,1,5269.724,404.607Zm57.074,12.758c-.99.308-2.011.593-3.055.851q.661-1.117,1.267-2.242Q5325.946,416.634,5326.8,417.365Zm-29.306-11.587c-.909,3.085-1.058,7.311-.409,12.227-6.557-2.333-9.321-6.227-11.811-9.735a26.085,26.085,0,0,0-3.285-4.05,28.1,28.1,0,0,1,5.743-5.115C5289.223,401.346,5292.411,403.538,5297.492,405.778Zm36.54-20.541a24.236,24.236,0,0,1,4.221,3.137c5.471,5.109,8.1,12.743,7.829,22.689a11.288,11.288,0,0,1-2.746,6.777,24.084,24.084,0,0,0-3.374-5.978,10.134,10.134,0,0,0,1.736-2.489c1.109-2.321,1.445-5.928-3.254-9.927q-.48-.409-.961-.791-.405-3.611-1.24-7.682A18.976,18.976,0,0,0,5334.032,385.237Zm-.767,29.549a39.312,39.312,0,0,1-4.788,2.023,25.526,25.526,0,0,0-2.75-2.206,59.642,59.642,0,0,0,3.011-6.975A22.166,22.166,0,0,1,5333.265,414.786Zm-62.83-12.173a13.835,13.835,0,0,0-8.607,9.7,12.6,12.6,0,0,0-.261,3.16,56.675,56.675,0,0,1-9.867-10.264q.2-.667.467-1.331c2.93-7.411,11.112-13.888,21.887-17.327a49.985,49.985,0,0,1,9.862-2.09C5278.06,388.511,5273.46,394.651,5270.436,402.613Zm64.768,11.092q-.279.171-.569.339a24.3,24.3,0,0,0-5.329-8.1q.281-.88.519-1.739a58.18,58.18,0,0,1,6.2,5.408A26.321,26.321,0,0,1,5335.2,413.705Zm-7.671-7.344a58.339,58.339,0,0,1-3.125,7.388,25.532,25.532,0,0,0-6.523-2.792,157.341,157.341,0,0,1-18.465-6.015,7.408,7.408,0,0,1,.772-1.391,23.491,23.491,0,0,1,9.243-7.492,40.64,40.64,0,0,1,15.214,7.717A36.986,36.986,0,0,1,5327.533,406.361Zm10.391,5.357q-.364.324-.767.639.133-.616.239-1.259C5337.575,411.3,5337.751,411.511,5337.923,411.718Zm-.234-10.892c2.982,2.633,3.864,5.285,2.622,7.884a8.486,8.486,0,0,1-1.315,1.939q-.636-.76-1.337-1.508A46.116,46.116,0,0,0,5337.689,400.826Zm-1.679-1.368a49.876,49.876,0,0,1,.2,8.21,65.814,65.814,0,0,0-5.972-5.061,32.881,32.881,0,0,0,.913-6.184A29.909,29.909,0,0,1,5336.011,399.458ZM5328.5,403.2q-.2.742-.429,1.5a43.044,43.044,0,0,0-16.311-9.585,25.188,25.188,0,0,1,3.4-.918C5320.176,397.437,5324.665,400.362,5328.5,403.2Zm-21.435-7.663a24.7,24.7,0,0,0-8.117,7.112,8.913,8.913,0,0,0-.936,1.682l-.181-.081c-4.545-2.035-7.489-4.032-8.789-5.958A26.2,26.2,0,0,1,5307.061,395.541Zm-20.2-12.877a51.43,51.43,0,0,0-13.278,2.426c-11.209,3.578-19.751,10.391-22.849,18.226-.047.121-.094.242-.139.363q-.848-1.221-1.652-2.518c-5.051-8.151-5.607-15.153-1.653-20.814,3.832-5.484,11.984-9.553,22.956-11.458a92.705,92.705,0,0,1,33.284.715c8.224,1.7,15.392,4.451,20.728,7.959a31.9,31.9,0,0,1,4.616,3.643c-7.613-2.635-17.542-3.377-29.69-2.2A32.432,32.432,0,0,0,5286.865,382.663Zm.175,15.1a29.2,29.2,0,0,0-6.25,5.494,9.614,9.614,0,0,0-6.208-1.535,13.218,13.218,0,0,0-2.259.317c2.431-5.9,6.911-13.354,14.875-17.807a40.193,40.193,0,0,1,11.4,1.149,43.467,43.467,0,0,0-8.09,4.829c-2.891,2.188-4.131,4.461-3.688,6.757A5.2,5.2,0,0,0,5287.04,397.761Zm42.614-2.023a29.158,29.158,0,0,1-.764,5.862c-3.388-2.491-7.228-5.024-11.429-7.736A24.855,24.855,0,0,1,5329.654,395.738Zm1.541-11.967a18.12,18.12,0,0,1,3.542,7.512q.654,3.186,1.034,6.1a30.527,30.527,0,0,0-4.617-2.663,9.661,9.661,0,0,0-1.835-5.933c-4.424-5.16-10.9-7.494-18.732-6.751a36.56,36.56,0,0,0-9.7,2.375,38.192,38.192,0,0,0-10.381-1.763,31.6,31.6,0,0,1,8.826-2.113C5312.858,379.227,5323.529,380.317,5331.194,383.771Zm-29.508,9.739a26.7,26.7,0,0,0-13.295,3.433c-.024-.09-.046-.18-.062-.27-.324-1.673.722-3.436,3.106-5.24a42.049,42.049,0,0,1,9.453-5.378,27.334,27.334,0,0,1,6.2,2.954q3.125,2.031,6.051,3.9l.2.13a26.862,26.862,0,0,0-4.049,1.4c-.262-.063-.526-.123-.789-.18A32.325,32.325,0,0,0,5301.686,393.51Zm11.624-10.072c5.7,0,11.01,1.877,14.841,6.347a7.506,7.506,0,0,1,1.45,4.268,26.321,26.321,0,0,0-12.865-1.656q-.634.077-1.263.185l-1.5-.966q-2.923-1.877-6.043-3.9a28.654,28.654,0,0,0-4.8-2.5A32.116,32.116,0,0,1,5313.31,383.438Z" transform="translate(-5243.189 -366.187)"/>
    </g>
    <g id="Group_801" data-name="Group 801" transform="translate(4707.851 703.527)">
      <path id="Path_5723" data-name="Path 5723" class="cls-1" d="M5738.578,1663.149v6.065a6.34,6.34,0,0,0,6.341,6.341h289.294a79.176,79.176,0,0,0,15.666-12.732,77.062,77.062,0,0,0,5.151-6.015h-310.11A6.34,6.34,0,0,0,5738.578,1663.149Z" transform="translate(-5738.578 -1656.808)"/>
      <path id="Path_5724" data-name="Path 5724" class="cls-1" d="M5936.564,1715.017l.033.914.592,16.734q4.17,0,8.272-.006l.441-16.728.036-1.408Z" transform="translate(-5877.082 -1697.183)"/>
    </g>
    <g id="Group_806" data-name="Group 806" transform="translate(4265.193 378.626)">
      <g id="Group_805" data-name="Group 805" transform="translate(0 0)">
        <path id="Path_5725" data-name="Path 5725" class="cls-1" d="M4303.5,1029.793s69.417-15.159,203.355,0l15.369,156.141-183.891-9.1Z" transform="translate(-4291.992 -888.556)"/>
        <path id="Path_5726" data-name="Path 5726" class="cls-12" d="M5036.25,1039.268l.325,3.582.658,7.243,1.888,20.763,0,.109,4.424,48.579.5,5.506,3.979,43.774,1.556,17.13,2.94,32.331,2.174,23.895,1.454,15.985q12.408.049,25.256.089,13.6.039,27.573.075h.874c1.267,0,2.54,0,3.81.007q1.031,0,2.062,0c10.644.03,21.4.043,32.206.059q2.575,0,5.151.007h1.519q4.627.01,9.262.013,2.995,0,5.99.006l13.873.01q1.623,0,3.246,0,1.968.005,3.937,0c.568,0,1.141,0,1.709,0,.757,0,1.511,0,2.267,0h1.9q14.327.01,28.525.01h5.878c1.341-36.774-.51-123.6-47.909-123.6-14.225,0-25.759-.036-35-.829-19.589-1.677-28.911-6.743-31.832-22.007-1.533-7.983-1.312-18.754.105-33.288,2.951-30.246-19.458-39.583-41.343-41.642-2.917-.276-5.822-.425-8.657-.47-3.18-.056-6.268.013-9.183.155a158.978,158.978,0,0,0-18.468,2.006C5037.2,1039.068,5036.25,1039.268,5036.25,1039.268Z" transform="translate(-4804.597 -898.03)"/>
        <path id="Path_5727" data-name="Path 5727" class="cls-1" d="M4921.727,1044.793l1.733,19.05,7.611,83.719,2.506,27.566.825,9.071,1.319,14.488.119,1.312,3.036,33.384,1.188,13.057,1.553,17.087q4.153.02,8.387.043c1,.006,2,.01,3,.016l3.926.02c.649,0,1.3.006,1.951.006q5.6.03,11.317.049,2.906.01,5.842.026c8.271.033,16.7.063,25.256.089q13.6.039,27.572.075h.875c1.267,0,2.539,0,3.809.007q1.031,0,2.062,0c10.644.03,21.4.043,32.206.059q2.575,0,5.151.007h1.519q4.627.01,9.262.013,2.995.005,5.99.007l13.873.01q1.622,0,3.246,0,1.969,0,3.937,0c.569,0,1.142,0,1.71,0,.756,0,1.51,0,2.266,0h1.9c1.339-36.778-.52-123.589-47.911-123.589-.477,0-.947,0-1.417,0-51.75-.132-71.793-7.657-81.536-46.379-1.368-5.423-2.529-11.462-3.549-18.178q-.182-1.218-.441-2.371c-.1-.434-.2-.868-.316-1.289a.032.032,0,0,0,0-.016c-2.378-9.042-8.064-15.169-15.03-19.3a47.886,47.886,0,0,0-7.65-3.631q-1.175-.444-2.365-.832a79.993,79.993,0,0,0-17.1-3.408A100.553,100.553,0,0,0,4921.727,1044.793Z" transform="translate(-4724.48 -903.555)"/>
        <path id="Path_5728" data-name="Path 5728" class="cls-6" d="M4737.684,618.615s4.4-20.858-22.034-26.584-48.014,8.759-59.8,19.877-4.709,45.143-22.227,46.154-33.255,9.085-29.646,28.468-14.809,10.843-13.131,29.761,16.163,35.763,52.885,36.1,101.741-19.1,103.087-21.561,39.335-21.986,13.5-41.774C4734.91,669.6,4778.746,632.061,4737.684,618.615Z" transform="translate(-4492.934 -586.121)"/>
        <path id="Path_5729" data-name="Path 5729" class="cls-13" d="M4818.326,1676.285q7.879.074,16.284.138,5.5.045,11.192.082l5.878.04,10.817.069c.313,0,.625,0,.941.007q2.9.015,5.841.033,4.154.02,8.387.043c1,.006,2,.01,3,.016l3.927.02c.648,0,1.3.006,1.951.006q5.6.03,11.317.049,2.906.01,5.841.026,12.409.05,25.256.089,13.6.039,27.573.075h.874c1.267,0,2.54,0,3.81.007q1.031,0,2.062,0c10.644.03,21.4.043,32.206.059q2.577,0,5.151.007h1.519q4.627.01,9.262.013,2.994.005,5.989.007l13.873.01q1.623,0,3.246,0,1.969,0,3.938,0c.568,0,1.141,0,1.709,0a14.333,14.333,0,0,0-3.568-3.733c-4.282-3.092-9.121-6.338-14.5-9.578a208.334,208.334,0,0,0-19.527-10.413,193.287,193.287,0,0,0-70.924-18.086,144.579,144.579,0,0,0-31.581,1.654c-4.8.783-9.449,1.786-13.949,2.977a155.312,155.312,0,0,0-19.585,6.6c-5.168,2.125-10.065,4.45-14.683,6.9q-.809.424-1.6.859A186.309,186.309,0,0,0,4818.326,1676.285Z" transform="translate(-4652.145 -1316.681)"/>
        <path id="Path_5730" data-name="Path 5730" class="cls-10" d="M4913.512,1543.5a10.933,10.933,0,0,0,1.645,1.444,11.6,11.6,0,0,0,3.6,1.73,74.626,74.626,0,0,0,12.226,2.128c5.65.6,12.185.95,19.08,1.128,5.028.132,10.242.168,15.442.135,25.7-.148,50.99-1.9,50.99-1.9s10.025,7.8,10.039,18.056c10.644.03,21.4.043,32.206.059q2.575,0,5.151.007h1.519q4.627.01,9.262.013,2.994,0,5.99.007c1.575-4.315,3.177-8.808,4.7-13.295,4.894-14.37,9.048-28.67,9.37-36.877,1.339-34.308-83.939-39.461-135.9-39.429-1.378,0-2.733.007-4.062.014-4.194.026-8.127.082-11.738.158-1.105.02-2.182.046-3.224.073-6.562.161-11.834.375-15.314.536-3.016.141-4.687.243-4.687.243s-1.092,2.809-2.585,7.3c-1.44,4.318-3.256,10.2-4.838,16.619q-.232.938-.454,1.891-.35,1.48-.674,2.99C4908.187,1520.818,4906.908,1536.49,4913.512,1543.5Z" transform="translate(-4715.401 -1205.915)"/>
        <path id="Path_5731" data-name="Path 5731" class="cls-8" d="M4648.85,1534.941c10.976,9.078,26.72,15.2,44.2,19.284h.017c.131.033.243.063.375.092.033-.03.065-.056.1-.086q7.879.074,16.285.138,5.5.045,11.192.082l5.878.04,10.817.069c.313,0,.625,0,.941.007q2.9.015,5.841.033,4.154.02,8.387.043c1,.006,2,.01,3,.016l3.926.02c.649,0,1.3.006,1.951.006q5.6.03,11.318.049,2.906.01,5.841.026,12.408.05,25.256.089,13.6.039,27.573.075h.875c1.267,0,2.539,0,3.809.007q1.031,0,2.062,0c10.644.03,21.4.043,32.207.059q2.576,0,5.151.007h.733q.508-11.431,1.213-23.688c0-.039,0-.079.007-.118,1.128-19.445-50.6-36.288-105.453-48.645-4.707-1.059-9.433-2.085-14.149-3.078l-1.878-.4-.53-.108c-6.219-1.292-12.413-2.526-18.511-3.7q-4.079-.785-8.1-1.529-4.875-.9-9.627-1.757c-27.046-4.834-50.517-8.275-63.271-10.044-6.489-.9-10.207-1.369-10.207-1.369a227.2,227.2,0,0,0-4.812,25.678C4638.98,1504.231,4638.638,1526.495,4648.85,1534.941Z" transform="translate(-4527.357 -1194.627)"/>
        <path id="Path_5732" data-name="Path 5732" class="cls-14" d="M4681.874,1122.3c11.965,27.185,85.441,3.747,104.188-10.065,25.5-18.788-9.655-20.919-1.726-41.74,4.343-11.4,25.847-31.031,29.577-47.206,1.905-8.259-3.776-60.278-8.833-70.378s-28.98-18.909-47.009-17.843c-29.253,1.732-38.154,5.658-41.971,15.133-5.682,14.12-9.353,32.363-11.352,48.886a223.237,223.237,0,0,0-1.824,31.911c.012.5.028.984.052,1.46a45.407,45.407,0,0,1-1.621,12.237c-2.878,11.826-8.989,26.954-13.824,41.068a.07.07,0,0,1-.012.017C4682.331,1100.91,4678.6,1114.862,4681.874,1122.3Z" transform="translate(-4555.828 -826.944)"/>
        <g id="Group_802" data-name="Group 802" transform="translate(176.848)">
          <path id="Path_5733" data-name="Path 5733" class="cls-15" d="M4925.5,603.243c.579-3.914,1.421-12.575-3.521-18.71-4.266-5.295-11.4-8.314-21.2-8.975-15.59-1.05-27.143,2.595-34.092,5.838a48.017,48.017,0,0,0-12.861,8.974l2.059-.849c.151-.15,15.46-14.936,44.827-12.954,9.506.641,15.173,3.1,19.254,8.171,4.7,5.835,3.841,11.872,3.285,15.623a18.781,18.781,0,0,0,1.813,1.9l-4.04,1.423S4925.486,603.35,4925.5,603.243Z" transform="translate(-4853.83 -575.373)"/>
        </g>
        <g id="Group_803" data-name="Group 803" transform="translate(109.712 67.645)">
          <path id="Path_5734" data-name="Path 5734" class="cls-15" d="M4631.457,831.769l2.234-2.521c-2.132-7.182-1.408-13.632,3.411-19.161,4.174-4.788,9.1-7.032,15.126-6.112,14.514,2.22,17.156-1.057,17.258-1.257l.968.969-.168-1.664-.894-1.5c-.022.042-3.371,4.535-17.012,2.448a18.486,18.486,0,0,0-16.961,6.42C4630.375,815.183,4629.228,824.259,4631.457,831.769Z" transform="translate(-4630.371 -800.528)"/>
        </g>
        <path id="Path_5735" data-name="Path 5735" class="cls-12" d="M4272.4,1041.531l6.354,26.313,34,140.846v0a131.736,131.736,0,0,0,33.263,24.652q5.461,2.831,11.163,5.1a120.649,120.649,0,0,0,43.126,8.667c2.259.036,4.588.065,6.972.1q5.738.084,11.933.151,5.293.059,10.9.112l1.117.01h0q2.265.02,4.578.043h.017c.131.032.243.063.375.092.032-.03.065-.056.1-.086q7.879.074,16.284.138,5.5.045,11.193.082l5.878.04,10.817.069c.312,0,.625,0,.941.007q2.9.015,5.841.033,4.154.02,8.387.043c1,.006,2,.01,3,.016l3.927.02c.649,0,1.3.006,1.951.006.171-4.657.286-10.094.263-16.044-.027-6.443-.217-13.485-.681-20.783a233.926,233.926,0,0,0-4.648-35.021.015.015,0,0,0,0-.01c-.142-.654-.29-1.309-.444-1.957s-.3-1.27-.454-1.9a126.04,126.04,0,0,0-4.022-13.3c-4.15-11.3-9.9-20.9-17.82-27.03a33.433,33.433,0,0,0-14.307-6.516,36.914,36.914,0,0,0-7.111-.667q-1.583,0-3.145,0-3.6.01-7.081.036c-6.357.04-12.4.1-18.1.056q-3.359-.019-6.555-.092h-.013c-3.684-.082-7.2-.227-10.552-.464-28.391-2-44.362-10.617-42.2-45.375v0a155.428,155.428,0,0,1,2.375-18.349c4.65-25.3-4.437-34.989-25.5-37.613h-.017c-9.2-1.141-20.678-.937-34.3-.1-.24.013-.484.029-.727.046h0c-6.121.385-12.663.894-19.622,1.467C4282.644,1024.96,4270.7,1034.5,4272.4,1041.531Z" transform="translate(-4270.119 -887.929)"/>
        <g id="Group_804" data-name="Group 804" transform="translate(193.175 29.92)">
          <path id="Path_5736" data-name="Path 5736" class="cls-7" d="M4951.5,859.735c-.645,5.519-1.43,10.67-16.086,10.444-9.621-.148-23.17-7.621-21.576-15.9.757-3.936,7.728-14.291,8.523-37.494l1.763.417,29.639,7.045s-1.036,9.372-1.391,18.225C4952.069,849.9,4951.878,856.492,4951.5,859.735Z" transform="translate(-4912.045 -774.174)"/>
          <path id="Path_5737" data-name="Path 5737" class="cls-16" d="M4978.077,856.058s-1.035,9.373-1.391,18.225c-16.693-1.1-24.922-12.468-28.221-21.055Z" transform="translate(-4936.361 -799.671)"/>
          <path id="Path_5738" data-name="Path 5738" class="cls-7" d="M4966.233,734.142s-35.811,16.839-45.953-5.623-21.6-35.417.839-47.118,30.779-5.149,35.988,1.525S4975.287,729.183,4966.233,734.142Z" transform="translate(-4908.175 -674.961)"/>
        </g>
        <path id="Path_5739" data-name="Path 5739" class="cls-6" d="M4881.044,631.122s15.016-3.574,29.058-3.337c9.55.16,10.533-19.6-10.741-26.289-21.562-6.776-46.082,1.6-54.518,7.713-13.929,10.095,14.21,61.154,15.667,61.39s10.17,3.986,10.17,3.986,2.222-7.165.214-8.654c-6.485-4.806-6.443-14.059,1.263-12.886C4878.666,654.036,4872.453,632.3,4881.044,631.122Z" transform="translate(-4667.995 -591.885)"/>
        <path id="Path_5740" data-name="Path 5740" class="cls-10" d="M5121.386,1162.444a47.749,47.749,0,0,0,14.706-8.373c-6.913-3.674-14.221-14-15.863-13.255C5118.38,1141.659,5121.386,1162.444,5121.386,1162.444Z" transform="translate(-4862.926 -970.91)"/>
        <path id="Path_5741" data-name="Path 5741" class="cls-1" d="M4265.36,1040.212l4.065,43.534v0l7.357,78.756v0a145.8,145.8,0,0,0,23.148,39.159l0,0q3.779,4.559,7.894,8.736v0a131.722,131.722,0,0,0,33.262,24.652q5.461,2.832,11.163,5.1a120.653,120.653,0,0,0,43.125,8.667c2.26.036,4.588.065,6.973.1q5.738.084,11.933.151,5.294.059,10.9.112l1.118.01h0q2.265.02,4.578.043h.017c.131.032.243.063.375.092.033-.03.066-.056.1-.086q7.879.074,16.284.138,5.5.045,11.193.082l5.877.04c.21-5.894.335-13.018.22-20.836q-.02-1.145-.043-2.3a306.515,306.515,0,0,0-2.786-36.446q-.188-1.327-.395-2.654-.152-.967-.309-1.931a166.61,166.61,0,0,0-4.026-18.337c-4.707-16.557-12.166-30.44-23.825-36.84a30.471,30.471,0,0,0-11.525-3.6,35.877,35.877,0,0,0-6.509-.1c-.017,0-.03,0-.046,0h-.013q-5.722.42-11,.812c-4.884.359-9.485.691-13.813.97h0c-56,3.637-66.527-.983-53.279-60.281,6.236-27.9-2.154-38.919-18.27-42.2a68.089,68.089,0,0,0-13.864-1.158h0c-.227,0-.451,0-.68,0h0a253.72,253.72,0,0,0-28.821,2.536C4270.175,1027.875,4264.1,1032.069,4265.36,1040.212Z" transform="translate(-4265.193 -889.646)"/>
        <path id="Path_5742" data-name="Path 5742" class="cls-7" d="M5409.857,1241.588s9.459-14.4,17.083-14.682,21.741-4.235,20.612-1.412-9.882,3.106-10.729,4.8,12.988,4.235,16.941,4.517,13.271,0,12.988,1.977-16.794,10.165-28.444,9.035-26.05,3.388-26.05,3.388Z" transform="translate(-5065.959 -1029.467)"/>
        <path id="Path_5743" data-name="Path 5743" class="cls-14" d="M5044.5,955.824l.672,100.077a108,108,0,0,0,6.88,11.276c1.541,2.235,3.318,4.673,5.328,7.193,8.646,10.824,21.562,23.183,37.679,27.342a45.228,45.228,0,0,0,4.807.979c8.774,1.292,17.357-.591,25.239-4.094a.094.094,0,0,1,.029-.012c22.309-9.9,39.087-32.676,39.087-32.676a18.333,18.333,0,0,0-2.5-17.994s-45.045,10.128-49.338,7.987-29.316-74.242-35.27-83.3S5044.5,955.824,5044.5,955.824Z" transform="translate(-4810.37 -841.523)"/>
        <path id="Path_5744" data-name="Path 5744" class="cls-17" d="M4749.585,1258.1,4790,1270.9c-4.031-15.648-38.908-30.864-38.908-30.864l.064,4.368c.012.5.029.984.052,1.459A45.387,45.387,0,0,1,4749.585,1258.1Z" transform="translate(-4604.056 -1040.35)"/>
        <path id="Path_5745" data-name="Path 5745" class="cls-17" d="M5067.715,1269.212c1.54,2.236,3.9,5.506,5.906,8.025,8.646,10.824,21.562,23.183,37.68,27.342-34.952-16.72-31.332-65.415-33.041-58-1.738,7.529-9.363,20.511-9.363,20.511Z" transform="translate(-4826.609 -1044.39)"/>
        <path id="Path_5746" data-name="Path 5746" class="cls-7" d="M4856.771,1338.022s12.806,5.89,16.135,11.268,7.426,21.513,4.866,24.33-13.445-7.235-14.406-11.845-4.226-4.226-7.3-6.339-5.378-8.259-5.378-8.259Z" transform="translate(-4674.784 -1108.895)"/>
        <path id="Path_5747" data-name="Path 5747" class="cls-7" d="M4909.242,1363.189s12.1,11.7,10.754,12.349-8.164-2.717-8.924-4.129S4909.242,1363.189,4909.242,1363.189Z" transform="translate(-4715.747 -1126.501)"/>
        <path id="Path_5748" data-name="Path 5748" class="cls-14" d="M4662,936.066s-23.745,1.737-34.17,5.5-73.618,81.576-74.42,101.641c-.29,7.239,8.4,28.088,87.741,24.806,0,0,11.626-2.92,11.6-9.761s-42.493-18.425-42.878-25.76,39-20.463,38.61-35.135S4662,936.066,4662,936.066Z" transform="translate(-4466.812 -827.701)"/>
      </g>
    </g>
    <path id="Path_5749" data-name="Path 5749" class="cls-7" d="M5555.427,693.2l5.428-2.253-4.6-4.892-2.3,1.028Z" transform="translate(-901.567 -274.18)"/>
  </g>
</svg>
